<?xml version="1.0" encoding="utf-8"?>
<!-- Generator: Adobe Illustrator 28.0.0, SVG Export Plug-In . SVG Version: 6.00 Build 0)  -->
<svg version="1.1" id="Слой_1" xmlns="http://www.w3.org/2000/svg" xmlns:xlink="http://www.w3.org/1999/xlink" x="0px" y="0px"
	 viewBox="0 0 1000 444.3592224" enable-background="new 0 0 1000 444.3592224" xml:space="preserve">
<path fill="#EE3524" d="M708.2634888,39.3264465v16.0505409h138.9804077c9.104187,0,23.1187134,0,32.3812866,9.2625999
	c9.2626343,9.302803,9.2626343,23.1175003,9.2626343,32.6195297v138.9024353c0,8.9835663,0,23.0772858-9.2626343,32.2600861
	c-9.2625732,9.2229919-23.2770996,9.2229919-32.3812866,9.2229919h-67.1557007c-11.5386353,0-26.6692505,0-32.5396729-12.7765808
	c-5.6292114-12.6565704,2.4758301-24.155014,9.4234009-33.378006l90.2719727-120.4162216H708.2634888l-55.3392334,74.0221939
	c-9.382019,12.6565704-17.4480591,23.077301-17.4480591,37.0114136c0,14.0541229,7.4276123,24.0758057,17.4480591,37.1314087
	l13.8146973,18.4057922c13.6953125,18.6452332,27.6293945,37.1308289,46.1546021,46.314209
	c18.6055908,9.2224121,40.5253906,9.2224121,70.7086182,9.2224121h60.2081299c34.5769653,0,86.7993774,0,121.4957886-34.6153564
	C1000,263.7501221,1000,212.9648285,1000,194.3592224v-55.5372162c0-18.6452103,0-69.3908997-34.6939087-104.206665
	C930.6096802,0,878.3872681,0,843.8103027,0h-96.2617798c-9.0628052,0-20.8012695,0-30.0224609,9.2223902
	C708.2634888,18.3655815,708.2634888,29.9042301,708.2634888,39.3264465"/>
<polygon fill="#EE3524" points="541.5634766,111.0847778 680.4244995,111.0847778 513.8146973,333.2726135 374.912262,333.2726135 
	"/>
<path fill="#EE3524" d="M0,150.4240112c0-9.3021851,0-20.9608612,9.2211714-30.2234573
	c9.3430166-9.1029816,20.7622566-9.1029816,30.1052742-9.1029816h232.5275269c30.1832581,0,52.3028564,0,70.7500916,9.1029816
	c18.4447632,9.2625961,32.2984619,27.8280106,46.3519592,46.3538132l13.6953125,18.5258026
	c9.9814758,13.1756287,17.5285034,23.1168976,17.5285034,37.0114136c0,14.0535126-8.0661011,24.5942535-17.5285034,37.1710205
	L347.1147156,333.28479h-138.821991l90.2719421-120.2967987c6.9865417-9.2223969,15.1330566-20.8408508,9.3040466-33.7770538
	c-5.8314819-12.6565704-20.8426819-12.6565704-32.5007324-12.6565704H166.7682037v277.8048706H55.536602V166.5543671H0V150.4240112z
	"/>
</svg>
