<?xml version="1.0" encoding="UTF-8"?>
<svg id="_Новая_глава" data-name="Новая_глава" xmlns="http://www.w3.org/2000/svg" xmlns:xlink="http://www.w3.org/1999/xlink" viewBox="0 0 413 154">
  <defs>
    <style>
      .cls-1 {
        fill: url(#_Новый_образец_градиентной_залив-59);
      }

      .cls-2 {
        fill: url(#_Новый_образец_градиентной_залив-6);
      }

      .cls-3 {
        fill: url(#_Новый_образец_градиентной_залив-48);
      }

      .cls-4 {
        fill: url(#_Новый_образец_градиентной_залив-37);
      }

      .cls-5 {
        fill: url(#_Новый_образец_градиентной_залив-23);
      }

      .cls-6 {
        fill: url(#_Новый_образец_градиентной_залив-17);
      }

      .cls-7 {
        fill: url(#_Новый_образец_градиентной_залив-10);
      }

      .cls-8 {
        fill: url(#_Новый_образец_градиентной_залив-55);
      }

      .cls-9 {
        fill: url(#_Новый_образец_градиентной_залив-71);
      }

      .cls-10 {
        fill: url(#_Новый_образец_градиентной_залив-12);
      }

      .cls-11 {
        fill: url(#_Новый_образец_градиентной_залив-30);
      }

      .cls-12 {
        fill: url(#_Новый_образец_градиентной_залив-33);
      }

      .cls-13 {
        fill: url(#_Новый_образец_градиентной_залив-8);
      }

      .cls-14 {
        fill: url(#_Новый_образец_градиентной_залив-69);
      }

      .cls-15 {
        fill: url(#_Новый_образец_градиентной_залив-53);
      }

      .cls-16 {
        fill: url(#_Новый_образец_градиентной_залив-14);
      }

      .cls-17 {
        fill: url(#_Новый_образец_градиентной_залив-27);
      }

      .cls-18 {
        fill: url(#_Новый_образец_градиентной_залив-52);
      }

      .cls-19 {
        fill: url(#_Новый_образец_градиентной_залив-66);
      }

      .cls-20 {
        fill: url(#_Новый_образец_градиентной_залив-7);
      }

      .cls-21 {
        fill: url(#_Новый_образец_градиентной_залив-13);
      }

      .cls-22 {
        fill: url(#_Новый_образец_градиентной_залив-29);
      }

      .cls-23 {
        fill: #fff;
      }

      .cls-24 {
        fill: url(#_Новый_образец_градиентной_залив-32);
      }

      .cls-25 {
        fill: url(#_Новый_образец_градиентной_залив-20);
      }

      .cls-26 {
        fill: url(#_Новый_образец_градиентной_залив-63);
      }

      .cls-27 {
        fill: url(#_Новый_образец_градиентной_залив-67);
      }

      .cls-28 {
        fill: url(#_Новый_образец_градиентной_залив-60);
      }

      .cls-29 {
        fill: url(#_Новый_образец_градиентной_залив-45);
      }

      .cls-30 {
        fill: url(#_Новый_образец_градиентной_залив-28);
      }

      .cls-31 {
        fill: url(#_Новый_образец_градиентной_залив-62);
      }

      .cls-32 {
        fill: none;
      }

      .cls-33 {
        fill: url(#_Новый_образец_градиентной_залив-40);
      }

      .cls-34 {
        fill: url(#_Новый_образец_градиентной_залив-44);
      }

      .cls-35 {
        fill: url(#_Новый_образец_градиентной_залив-70);
      }

      .cls-36 {
        fill: url(#_Новый_образец_градиентной_залив-51);
      }

      .cls-37 {
        fill: url(#_Новый_образец_градиентной_залив-35);
      }

      .cls-38 {
        fill: url(#_Новый_образец_градиентной_залив-43);
      }

      .cls-39 {
        fill: url(#_Новый_образец_градиентной_залив-31);
      }

      .cls-40 {
        fill: url(#_Новый_образец_градиентной_залив-73);
      }

      .cls-41 {
        fill: url(#_Новый_образец_градиентной_залив-9);
      }

      .cls-42 {
        fill: url(#_Новый_образец_градиентной_залив-50);
      }

      .cls-43 {
        fill: url(#_Новый_образец_градиентной_залив-19);
      }

      .cls-44 {
        fill: url(#_Новый_образец_градиентной_залив-49);
      }

      .cls-45 {
        fill: url(#_Новый_образец_градиентной_залив-26);
      }

      .cls-46 {
        fill: url(#_Новый_образец_градиентной_залив-58);
      }

      .cls-47 {
        fill: url(#_Новый_образец_градиентной_залив-36);
      }

      .cls-48 {
        fill: url(#_Новый_образец_градиентной_залив-18);
      }

      .cls-49 {
        fill: url(#_Новый_образец_градиентной_залив-74);
      }

      .cls-50 {
        fill: url(#_Новый_образец_градиентной_залив-72);
      }

      .cls-51 {
        fill: url(#_Новый_образец_градиентной_залив-39);
      }

      .cls-52 {
        fill: url(#_Новый_образец_градиентной_залив-34);
      }

      .cls-53 {
        fill: url(#_Новый_образец_градиентной_залив-4);
      }

      .cls-54 {
        fill: url(#_Новый_образец_градиентной_залив-25);
      }

      .cls-55 {
        fill: url(#_Новый_образец_градиентной_залив-24);
      }

      .cls-56 {
        fill: url(#_Новый_образец_градиентной_залив-65);
      }

      .cls-57 {
        fill: url(#_Новый_образец_градиентной_залив-42);
      }

      .cls-58 {
        fill: url(#_Новый_образец_градиентной_залив-38);
      }

      .cls-59 {
        fill: url(#_Новый_образец_градиентной_залив-16);
      }

      .cls-60 {
        fill: url(#_Новый_образец_градиентной_залив-61);
      }

      .cls-61 {
        fill: url(#_Новый_образец_градиентной_залив-5);
      }

      .cls-62 {
        fill: url(#_Новый_образец_градиентной_залив-11);
      }

      .cls-63 {
        fill: url(#_Новый_образец_градиентной_залив-21);
      }

      .cls-64 {
        fill: url(#_Новый_образец_градиентной_залив-41);
      }

      .cls-65 {
        fill: url(#_Новый_образец_градиентной_залив-15);
      }

      .cls-66 {
        fill: url(#_Новый_образец_градиентной_залив-57);
      }

      .cls-67 {
        fill: url(#_Новый_образец_градиентной_залив-3);
      }

      .cls-68 {
        fill: url(#_Новый_образец_градиентной_залив-56);
      }

      .cls-69 {
        fill: url(#_Новый_образец_градиентной_залив-64);
      }

      .cls-70 {
        fill: url(#_Новый_образец_градиентной_залив-47);
      }

      .cls-71 {
        fill: url(#_Новый_образец_градиентной_залив-54);
      }

      .cls-72 {
        fill: url(#_Новый_образец_градиентной_залив-46);
      }

      .cls-73 {
        fill: url(#_Новый_образец_градиентной_залив);
      }

      .cls-74 {
        fill: url(#_Новый_образец_градиентной_залив-68);
      }

      .cls-75 {
        fill: url(#_Новый_образец_градиентной_залив-2);
      }

      .cls-76 {
        fill: url(#_Новый_образец_градиентной_залив-22);
      }
    </style>
    <radialGradient id="_Новый_образец_градиентной_залив" data-name="Новый образец градиентной залив" cx="258.51" cy="111.66" fx="258.51" fy="111.66" r="134.05" gradientUnits="userSpaceOnUse">
      <stop offset="0" stop-color="#31cdbf"/>
      <stop offset=".16" stop-color="#30c7bc"/>
      <stop offset=".35" stop-color="#2fb9b4"/>
      <stop offset=".56" stop-color="#2da0a7"/>
      <stop offset=".78" stop-color="#2b7e94"/>
      <stop offset="1" stop-color="#28557e"/>
    </radialGradient>
    <radialGradient id="_Новый_образец_градиентной_залив-2" data-name="Новый образец градиентной залив" cx="261.85" cy="110.96" fx="261.85" fy="110.96" r="122.04" xlink:href="#_Новый_образец_градиентной_залив"/>
    <radialGradient id="_Новый_образец_градиентной_залив-3" data-name="Новый образец градиентной залив" cx="223.93" cy="114.2" fx="223.93" fy="114.2" r="180.86" xlink:href="#_Новый_образец_градиентной_залив"/>
    <radialGradient id="_Новый_образец_градиентной_залив-4" data-name="Новый образец градиентной залив" cx="261.85" cy="110.96" fx="261.85" fy="110.96" r="122.04" xlink:href="#_Новый_образец_градиентной_залив"/>
    <radialGradient id="_Новый_образец_градиентной_залив-5" data-name="Новый образец градиентной залив" cx="261.63" cy="111.83" fx="261.63" fy="111.83" r="125.47" xlink:href="#_Новый_образец_градиентной_залив"/>
    <radialGradient id="_Новый_образец_градиентной_залив-6" data-name="Новый образец градиентной залив" cx="261.85" cy="110.96" fx="261.85" fy="110.96" r="122.04" xlink:href="#_Новый_образец_градиентной_залив"/>
    <radialGradient id="_Новый_образец_градиентной_залив-7" data-name="Новый образец градиентной залив" cx="261.16" cy="111.4" fx="261.16" fy="111.4" r="123.22" xlink:href="#_Новый_образец_градиентной_залив"/>
    <radialGradient id="_Новый_образец_градиентной_залив-8" data-name="Новый образец градиентной залив" cx="261.85" cy="110.96" fx="261.85" fy="110.96" r="122.04" xlink:href="#_Новый_образец_градиентной_залив"/>
    <radialGradient id="_Новый_образец_градиентной_залив-9" data-name="Новый образец градиентной залив" cx="252.58" cy="112.37" fx="252.58" fy="112.37" r="135.93" xlink:href="#_Новый_образец_градиентной_залив"/>
    <radialGradient id="_Новый_образец_градиентной_залив-10" data-name="Новый образец градиентной залив" cx="261.85" cy="110.96" fx="261.85" fy="110.96" r="122.04" xlink:href="#_Новый_образец_градиентной_залив"/>
    <radialGradient id="_Новый_образец_градиентной_залив-11" data-name="Новый образец градиентной залив" cx="261.51" cy="111.2" fx="261.51" fy="111.2" r="122.98" xlink:href="#_Новый_образец_градиентной_залив"/>
    <radialGradient id="_Новый_образец_градиентной_залив-12" data-name="Новый образец градиентной залив" cx="261.85" cy="110.96" fx="261.85" fy="110.96" r="122.04" xlink:href="#_Новый_образец_градиентной_залив"/>
    <radialGradient id="_Новый_образец_градиентной_залив-13" data-name="Новый образец градиентной залив" cx="261.11" cy="111.37" fx="261.11" fy="111.37" r="123.49" xlink:href="#_Новый_образец_градиентной_залив"/>
    <radialGradient id="_Новый_образец_градиентной_залив-14" data-name="Новый образец градиентной залив" cx="261.85" cy="110.96" fx="261.85" fy="110.96" r="122.04" xlink:href="#_Новый_образец_градиентной_залив"/>
    <radialGradient id="_Новый_образец_градиентной_залив-15" data-name="Новый образец градиентной залив" cx="258.1" cy="113.87" fx="258.1" fy="113.87" r="132.03" xlink:href="#_Новый_образец_градиентной_залив"/>
    <radialGradient id="_Новый_образец_градиентной_залив-16" data-name="Новый образец градиентной залив" cx="261.85" cy="110.96" fx="261.85" fy="110.96" r="122.04" xlink:href="#_Новый_образец_градиентной_залив"/>
    <radialGradient id="_Новый_образец_градиентной_залив-17" data-name="Новый образец градиентной залив" cx="261.73" cy="111.51" fx="261.73" fy="111.51" r="124.09" xlink:href="#_Новый_образец_градиентной_залив"/>
    <radialGradient id="_Новый_образец_градиентной_залив-18" data-name="Новый образец градиентной залив" cx="261.85" cy="110.96" fx="261.85" fy="110.96" r="122.04" xlink:href="#_Новый_образец_градиентной_залив"/>
    <radialGradient id="_Новый_образец_градиентной_залив-19" data-name="Новый образец градиентной залив" cx="261.96" cy="111.39" fx="261.96" fy="111.39" r="123.51" xlink:href="#_Новый_образец_градиентной_залив"/>
    <radialGradient id="_Новый_образец_градиентной_залив-20" data-name="Новый образец градиентной залив" cx="261.85" cy="110.96" fx="261.85" fy="110.96" r="122.04" xlink:href="#_Новый_образец_градиентной_залив"/>
    <radialGradient id="_Новый_образец_градиентной_залив-21" data-name="Новый образец градиентной залив" cx="255.95" cy="112.76" fx="255.95" fy="112.76" r="131.88" xlink:href="#_Новый_образец_градиентной_залив"/>
    <radialGradient id="_Новый_образец_градиентной_залив-22" data-name="Новый образец градиентной залив" cx="261.85" cy="110.96" fx="261.85" fy="110.96" r="122.04" xlink:href="#_Новый_образец_градиентной_залив"/>
    <radialGradient id="_Новый_образец_градиентной_залив-23" data-name="Новый образец градиентной залив" cx="265.27" cy="119.3" fx="265.27" fy="119.3" r="148.43" xlink:href="#_Новый_образец_градиентной_залив"/>
    <radialGradient id="_Новый_образец_градиентной_залив-24" data-name="Новый образец градиентной залив" cx="261.85" cy="110.96" fx="261.85" fy="110.96" r="122.04" xlink:href="#_Новый_образец_градиентной_залив"/>
    <radialGradient id="_Новый_образец_градиентной_залив-25" data-name="Новый образец градиентной залив" cx="270.43" cy="119.53" fx="270.43" fy="119.53" r="149.17" xlink:href="#_Новый_образец_градиентной_залив"/>
    <radialGradient id="_Новый_образец_градиентной_залив-26" data-name="Новый образец градиентной залив" cx="261.85" cy="110.96" fx="261.85" fy="110.96" r="122.04" xlink:href="#_Новый_образец_градиентной_залив"/>
    <radialGradient id="_Новый_образец_градиентной_залив-27" data-name="Новый образец градиентной залив" cx="262.23" cy="111.97" fx="262.23" fy="111.97" r="124.6" xlink:href="#_Новый_образец_градиентной_залив"/>
    <radialGradient id="_Новый_образец_градиентной_залив-28" data-name="Новый образец градиентной залив" cx="261.85" cy="110.96" fx="261.85" fy="110.96" r="122.04" xlink:href="#_Новый_образец_градиентной_залив"/>
    <radialGradient id="_Новый_образец_градиентной_залив-29" data-name="Новый образец градиентной залив" cx="263.06" cy="118.26" fx="263.06" fy="118.26" r="145.12" xlink:href="#_Новый_образец_градиентной_залив"/>
    <radialGradient id="_Новый_образец_градиентной_залив-30" data-name="Новый образец градиентной залив" cx="261.85" cy="110.96" fx="261.85" fy="110.96" r="122.04" xlink:href="#_Новый_образец_градиентной_залив"/>
    <radialGradient id="_Новый_образец_градиентной_залив-31" data-name="Новый образец градиентной залив" cx="261.69" cy="111.25" fx="261.69" fy="111.25" r="123.16" xlink:href="#_Новый_образец_градиентной_залив"/>
    <radialGradient id="_Новый_образец_градиентной_залив-32" data-name="Новый образец градиентной залив" cx="261.85" cy="110.96" fx="261.85" fy="110.96" r="122.04" xlink:href="#_Новый_образец_градиентной_залив"/>
    <radialGradient id="_Новый_образец_градиентной_залив-33" data-name="Новый образец градиентной залив" cx="259.44" cy="112.37" fx="259.44" fy="112.37" r="130.85" xlink:href="#_Новый_образец_градиентной_залив"/>
    <radialGradient id="_Новый_образец_градиентной_залив-34" data-name="Новый образец градиентной залив" cx="261.85" cy="110.96" fx="261.85" fy="110.96" r="122.04" xlink:href="#_Новый_образец_градиентной_залив"/>
    <radialGradient id="_Новый_образец_градиентной_залив-35" data-name="Новый образец градиентной залив" cx="259.72" cy="111.51" fx="259.72" fy="111.51" r="125.43" xlink:href="#_Новый_образец_градиентной_залив"/>
    <radialGradient id="_Новый_образец_градиентной_залив-36" data-name="Новый образец градиентной залив" cx="261.85" cy="110.96" fx="261.85" fy="110.96" r="122.04" xlink:href="#_Новый_образец_градиентной_залив"/>
    <radialGradient id="_Новый_образец_градиентной_залив-37" data-name="Новый образец градиентной залив" cx="255.25" cy="182.95" fx="255.25" fy="182.95" r="158.25" xlink:href="#_Новый_образец_градиентной_залив"/>
    <radialGradient id="_Новый_образец_градиентной_залив-38" data-name="Новый образец градиентной залив" cx="257.5" cy="180.66" fx="257.5" fy="180.66" r="154.18" xlink:href="#_Новый_образец_градиентной_залив"/>
    <radialGradient id="_Новый_образец_градиентной_залив-39" data-name="Новый образец градиентной залив" cx="248.44" cy="112.22" fx="248.44" fy="112.22" r="143.3" xlink:href="#_Новый_образец_градиентной_залив"/>
    <radialGradient id="_Новый_образец_градиентной_залив-40" data-name="Новый образец градиентной залив" cx="261.85" cy="110.96" fx="261.85" fy="110.96" r="122.04" xlink:href="#_Новый_образец_градиентной_залив"/>
    <radialGradient id="_Новый_образец_градиентной_залив-41" data-name="Новый образец градиентной залив" cx="243.29" cy="185.86" fx="243.29" fy="185.86" r="171.44" xlink:href="#_Новый_образец_градиентной_залив"/>
    <radialGradient id="_Новый_образец_градиентной_залив-42" data-name="Новый образец градиентной залив" cx="257.5" cy="180.66" fx="257.5" fy="180.66" r="154.18" xlink:href="#_Новый_образец_градиентной_залив"/>
    <radialGradient id="_Новый_образец_градиентной_залив-43" data-name="Новый образец градиентной залив" cx="234.13" cy="161.48" fx="234.13" fy="161.48" r="377.76" xlink:href="#_Новый_образец_градиентной_залив"/>
    <radialGradient id="_Новый_образец_градиентной_залив-44" data-name="Новый образец градиентной залив" cx="261.85" cy="110.96" fx="261.85" fy="110.96" r="122.04" xlink:href="#_Новый_образец_градиентной_залив"/>
    <radialGradient id="_Новый_образец_градиентной_залив-45" data-name="Новый образец градиентной залив" cx="222.68" cy="395.63" fx="222.68" fy="395.63" r="512.63" xlink:href="#_Новый_образец_градиентной_залив"/>
    <radialGradient id="_Новый_образец_градиентной_залив-46" data-name="Новый образец градиентной залив" cx="257.5" cy="180.66" fx="257.5" fy="180.66" r="154.18" xlink:href="#_Новый_образец_градиентной_залив"/>
    <radialGradient id="_Новый_образец_градиентной_залив-47" data-name="Новый образец градиентной залив" cx="262.29" cy="111.33" fx="262.29" fy="111.33" r="124.04" xlink:href="#_Новый_образец_градиентной_залив"/>
    <radialGradient id="_Новый_образец_градиентной_залив-48" data-name="Новый образец градиентной залив" cx="261.85" cy="110.96" fx="261.85" fy="110.96" r="122.04" xlink:href="#_Новый_образец_градиентной_залив"/>
    <radialGradient id="_Новый_образец_градиентной_залив-49" data-name="Новый образец градиентной залив" cx="257.86" cy="182.13" fx="257.86" fy="182.13" r="156.61" xlink:href="#_Новый_образец_градиентной_залив"/>
    <radialGradient id="_Новый_образец_градиентной_залив-50" data-name="Новый образец градиентной залив" cx="257.5" cy="180.66" fx="257.5" fy="180.66" r="154.18" xlink:href="#_Новый_образец_градиентной_залив"/>
    <radialGradient id="_Новый_образец_градиентной_залив-51" data-name="Новый образец градиентной залив" cx="260.57" cy="111.7" fx="260.57" fy="111.7" r="124.47" xlink:href="#_Новый_образец_градиентной_залив"/>
    <radialGradient id="_Новый_образец_градиентной_залив-52" data-name="Новый образец градиентной залив" cx="261.85" cy="110.96" fx="261.85" fy="110.96" r="122.04" xlink:href="#_Новый_образец_градиентной_залив"/>
    <radialGradient id="_Новый_образец_градиентной_залив-53" data-name="Новый образец градиентной залив" cx="256.14" cy="183.95" fx="256.14" fy="183.95" r="158.61" xlink:href="#_Новый_образец_градиентной_залив"/>
    <radialGradient id="_Новый_образец_градиентной_залив-54" data-name="Новый образец градиентной залив" cx="257.5" cy="180.66" fx="257.5" fy="180.66" r="154.18" xlink:href="#_Новый_образец_градиентной_залив"/>
    <radialGradient id="_Новый_образец_градиентной_залив-55" data-name="Новый образец градиентной залив" cx="262.05" cy="111.46" fx="262.05" fy="111.46" r="124.82" xlink:href="#_Новый_образец_градиентной_залив"/>
    <radialGradient id="_Новый_образец_градиентной_залив-56" data-name="Новый образец градиентной залив" cx="261.85" cy="110.96" fx="261.85" fy="110.96" r="122.04" xlink:href="#_Новый_образец_градиентной_залив"/>
    <radialGradient id="_Новый_образец_градиентной_залив-57" data-name="Новый образец градиентной залив" cx="257.58" cy="182.75" fx="257.58" fy="182.75" r="157.67" xlink:href="#_Новый_образец_градиентной_залив"/>
    <radialGradient id="_Новый_образец_градиентной_залив-58" data-name="Новый образец градиентной залив" cx="257.5" cy="180.66" fx="257.5" fy="180.66" r="154.18" xlink:href="#_Новый_образец_градиентной_залив"/>
    <radialGradient id="_Новый_образец_градиентной_залив-59" data-name="Новый образец градиентной залив" cx="262.78" cy="111.27" fx="262.78" fy="111.27" r="124.36" xlink:href="#_Новый_образец_градиентной_залив"/>
    <radialGradient id="_Новый_образец_градиентной_залив-60" data-name="Новый образец градиентной залив" cx="261.85" cy="110.96" fx="261.85" fy="110.96" r="122.04" xlink:href="#_Новый_образец_градиентной_залив"/>
    <radialGradient id="_Новый_образец_градиентной_залив-61" data-name="Новый образец градиентной залив" cx="258.33" cy="181.78" fx="258.33" fy="181.78" r="156.15" xlink:href="#_Новый_образец_градиентной_залив"/>
    <radialGradient id="_Новый_образец_градиентной_залив-62" data-name="Новый образец градиентной залив" cx="257.5" cy="180.66" fx="257.5" fy="180.66" r="154.18" xlink:href="#_Новый_образец_градиентной_залив"/>
    <radialGradient id="_Новый_образец_градиентной_залив-63" data-name="Новый образец градиентной залив" cx="261.75" cy="111.56" fx="261.75" fy="111.56" r="124.62" xlink:href="#_Новый_образец_градиентной_залив"/>
    <radialGradient id="_Новый_образец_градиентной_залив-64" data-name="Новый образец градиентной залив" cx="261.85" cy="110.96" fx="261.85" fy="110.96" r="122.04" xlink:href="#_Новый_образец_градиентной_залив"/>
    <radialGradient id="_Новый_образец_градиентной_залив-65" data-name="Новый образец градиентной залив" cx="257.35" cy="183.26" fx="257.35" fy="183.26" r="158.45" xlink:href="#_Новый_образец_градиентной_залив"/>
    <radialGradient id="_Новый_образец_градиентной_залив-66" data-name="Новый образец градиентной залив" cx="257.5" cy="180.66" fx="257.5" fy="180.66" r="154.18" xlink:href="#_Новый_образец_градиентной_залив"/>
    <radialGradient id="_Новый_образец_градиентной_залив-67" data-name="Новый образец градиентной залив" cx="261.49" cy="113.73" fx="261.49" fy="113.73" r="125.64" xlink:href="#_Новый_образец_градиентной_залив"/>
    <radialGradient id="_Новый_образец_градиентной_залив-68" data-name="Новый образец градиентной залив" cx="261.85" cy="110.96" fx="261.85" fy="110.96" r="122.04" xlink:href="#_Новый_образец_градиентной_залив"/>
    <radialGradient id="_Новый_образец_градиентной_залив-69" data-name="Новый образец градиентной залив" cx="257.1" cy="193.81" fx="257.1" fy="193.81" r="172.27" xlink:href="#_Новый_образец_градиентной_залив"/>
    <radialGradient id="_Новый_образец_градиентной_залив-70" data-name="Новый образец градиентной залив" cx="257.5" cy="180.66" fx="257.5" fy="180.66" r="154.18" xlink:href="#_Новый_образец_градиентной_залив"/>
    <radialGradient id="_Новый_образец_градиентной_залив-71" data-name="Новый образец градиентной залив" cx="261.19" cy="112.15" fx="261.19" fy="112.15" r="127.31" xlink:href="#_Новый_образец_градиентной_залив"/>
    <radialGradient id="_Новый_образец_градиентной_залив-72" data-name="Новый образец градиентной залив" cx="261.85" cy="110.96" fx="261.85" fy="110.96" r="122.04" xlink:href="#_Новый_образец_градиентной_залив"/>
    <radialGradient id="_Новый_образец_градиентной_залив-73" data-name="Новый образец градиентной залив" cx="256.7" cy="186.09" fx="256.7" fy="186.09" r="163.14" xlink:href="#_Новый_образец_градиентной_залив"/>
    <radialGradient id="_Новый_образец_градиентной_залив-74" data-name="Новый образец градиентной залив" cx="257.5" cy="180.66" fx="257.5" fy="180.66" r="154.18" xlink:href="#_Новый_образец_градиентной_залив"/>
  </defs>
  <g id="_Новая" data-name="Новая">
    <path class="cls-23" d="M47.62,92.98l9.19-34.3h7.99l-9.19,34.3h-7.99ZM58.74,78.92l1.8-6.71h16.76l-1.8,6.71h-16.76ZM71.15,92.98l9.19-34.3h7.94l-9.19,34.3h-7.94Z"/>
    <path class="cls-23" d="M97.06,93.37c-2.78,0-5.09-.59-6.95-1.76-1.86-1.18-3.13-2.78-3.83-4.83-.69-2.04-.69-4.37,0-6.98.71-2.65,1.96-4.99,3.75-7.03,1.79-2.04,3.92-3.64,6.41-4.8,2.48-1.16,5.11-1.74,7.89-1.74s5.15.58,7.03,1.74c1.88,1.16,3.16,2.76,3.86,4.8.69,2.04.69,4.39-.02,7.03-.71,2.65-1.96,4.98-3.74,7.01-1.79,2.03-3.93,3.63-6.43,4.8-2.5,1.18-5.16,1.76-7.97,1.76ZM98.74,87.1c1.31,0,2.53-.29,3.68-.86,1.15-.57,2.17-1.41,3.08-2.52.9-1.11,1.56-2.42,1.96-3.92.41-1.54.46-2.84.14-3.92-.32-1.08-.89-1.9-1.74-2.47-.84-.57-1.9-.86-3.18-.86s-2.5.29-3.66.86c-1.17.57-2.2,1.4-3.09,2.47-.89,1.08-1.55,2.38-1.96,3.92-.4,1.5-.45,2.81-.14,3.92.31,1.11.89,1.95,1.75,2.52.86.57,1.91.86,3.15.86Z"/>
    <path class="cls-23" d="M114.7,92.98l7.06-26.36h13.48c3.3,0,5.72.6,7.26,1.79,1.54,1.19,2.02,2.88,1.43,5.07-.57,2.12-1.89,3.8-3.97,5.02-2.08,1.23-4.55,1.84-7.43,1.84l1.21-1.76c3.2,0,5.44.59,6.73,1.76,1.28,1.18,1.63,2.89,1.02,5.15-.62,2.32-1.99,4.15-4.12,5.49-2.12,1.34-5,2.01-8.62,2.01h-14.06ZM123.1,87.78h6.42c1.37,0,2.48-.25,3.33-.73.85-.49,1.4-1.21,1.66-2.16.28-1.04.16-1.8-.37-2.28-.53-.47-1.49-.71-2.9-.71h-6.57l-1.58,5.88ZM125.87,77.44h5.78c1.31,0,2.37-.25,3.19-.76.82-.51,1.35-1.2,1.59-2.08.26-.98.11-1.69-.46-2.13-.57-.44-1.51-.66-2.81-.66h-5.78l-1.51,5.63Z"/>
    <path class="cls-23" d="M150.61,93.37c-2.03,0-3.68-.35-4.96-1.05-1.28-.7-2.16-1.66-2.64-2.87-.48-1.21-.51-2.56-.11-4.07.41-1.54,1.16-2.9,2.25-4.09,1.09-1.19,2.55-2.12,4.39-2.77s4.12-.98,6.83-.98h6.96l-1.18,4.41h-6.17c-1.8,0-3.11.29-3.94.88-.83.59-1.36,1.32-1.6,2.21-.26.98-.09,1.76.53,2.33.61.57,1.57.86,2.88.86s2.55-.29,3.74-.88c1.19-.59,2.15-1.49,2.9-2.69l.22,3.58c-.99,1.63-2.34,2.9-4.06,3.8-1.71.9-3.73,1.35-6.04,1.35ZM158.76,92.98l1.38-5.15-.19-1.13,2.47-9.21c.44-1.63.28-2.91-.47-3.82-.75-.91-2.16-1.37-4.21-1.37-1.4,0-2.84.22-4.32.66-1.47.44-2.8,1.04-3.98,1.79l-1.26-5.34c1.72-1.04,3.66-1.84,5.83-2.38,2.17-.54,4.3-.81,6.39-.81,4.02,0,6.88.95,8.6,2.84,1.71,1.89,2.03,4.85.96,8.87l-4.03,15.04h-7.15Z"/>
    <path class="cls-23" d="M168.21,92.98l9.7-10.04h7.79l-9.41,10.04h-8.08ZM186.98,92.98l2.35-8.77.71,1.18h-7.3c-3.76,0-6.5-.78-8.25-2.33-1.74-1.55-2.22-3.8-1.43-6.74.84-3.14,2.62-5.54,5.34-7.2s6-2.5,9.86-2.5h12.64l-7.06,26.36h-6.86ZM189.96,81.86l2.93-10.93.52,1.91h-6.62c-1.63,0-2.96.29-3.99.88-1.02.59-1.71,1.55-2.07,2.89-.67,2.52.61,3.77,3.84,3.77h6.81l-1.42,1.47Z"/>
  </g>
  <g id="_Глава" data-name="Глава">
    <path class="cls-32" d="M246.98,82.1c-.87-.21-1.73-.43-2.58-.65l-.85-.21.04-.1c.43-1.19.83-2.42,1.2-3.67l1.51-4.73h8.58l-2.84,10.6-5.07-1.24Z"/>
    <path class="cls-32" d="M246.37,72.84l-1.49,4.66c-.38,1.28-.78,2.51-1.2,3.67,1.1.28,2.19.56,3.32.83,1.7.42,3.35.82,4.97,1.22l2.78-10.38h-8.38Z"/>
    <path class="cls-32" d="M300.52,77.54l1.56-5.83h5.86c1.32,0,2.29.23,2.87.68.6.47.77,1.22.49,2.24-.24.9-.79,1.62-1.63,2.14-.83.51-1.92.77-3.25.77h-5.91Z"/>
    <path class="cls-32" d="M309.63,76.69c.82-.51,1.35-1.2,1.59-2.08.26-.98.11-1.69-.46-2.13-.57-.44-1.51-.66-2.81-.66h-5.78l-1.51,5.63h5.78c1.31,0,2.37-.25,3.19-.76Z"/>
    <path class="cls-32" d="M328.64,88.33c-1.33,0-2.32-.3-2.95-.88-.64-.6-.83-1.41-.56-2.43.24-.9.79-1.66,1.63-2.26.84-.6,2.18-.9,3.99-.9h5.37l-.76,2.82c-.53.87-1.18,1.57-1.94,2.13-1.31.49-2.66.99-4.08,1.48-.29.03-.5.04-.72.04Z"/>
    <path class="cls-32" d="M335.28,84.65l.72-2.7h-5.24c-1.8,0-3.11.29-3.94.88-.83.59-1.36,1.32-1.6,2.21-.26.98-.09,1.76.53,2.33.61.57,1.57.86,2.88.86.23,0,.46-.02.68-.04,1.41-.49,2.76-.98,4.05-1.46.74-.54,1.38-1.23,1.9-2.08Z"/>
    <path class="cls-32" d="M297.75,87.88l1.63-6.08h6.64c1.42,0,2.42.25,2.96.74.55.5.69,1.3.4,2.38-.26.97-.83,1.71-1.7,2.22-.86.5-2,.75-3.38.75h-6.55Z"/>
    <path class="cls-32" d="M307.64,87.05c.85-.49,1.4-1.21,1.66-2.16.28-1.04.16-1.8-.37-2.28-.53-.47-1.49-.71-2.9-.71h-6.57l-1.58,5.88h6.42c1.37,0,2.48-.25,3.33-.73Z"/>
    <path class="cls-32" d="M270.48,87.76c-.18-.1-.33-.2-.46-.32-.64-.6-.83-1.41-.56-2.43.24-.9.79-1.66,1.63-2.26.84-.6,2.18-.9,3.99-.9h5.37l-.76,2.82c-.77,1.25-1.76,2.17-2.95,2.76-1.19.59-2.46.89-3.78.89,0,0-1.66-.37-2.5-.56Z"/>
    <path class="cls-32" d="M279.61,84.65l.72-2.7h-5.24c-1.8,0-3.11.29-3.94.88-.83.59-1.36,1.32-1.6,2.21-.26.98-.09,1.76.53,2.33.12.11.27.21.41.3.84.19,1.66.38,2.47.56,1.3,0,2.55-.29,3.73-.88,1.19-.59,2.15-1.49,2.9-2.69Z"/>
    <path class="cls-73" d="M278.73,89.58l-.02-.11.44-1.66-.19-1.08.55-2.1.2.02.22,3.58c-.28.49-.58.91-.96,1.36l-.04.05-.21-.04Z"/>
    <path class="cls-75" d="M279.83,88.23l-.22-3.58s0,0,0,0l-.55,2.06.19,1.13-.44,1.66s.06.01.09.02c.34-.4.65-.83.93-1.29Z"/>
    <polygon class="cls-67" points="335.18 84.62 335.38 84.64 335.46 86.04 334.73 86.32 335.18 84.62"/>
    <path class="cls-53" d="M335.28,84.65s0,0,0,0l-.41,1.51c.16-.06.33-.12.49-.18l-.08-1.33Z"/>
    <path class="cls-61" d="M278.79,89.59c-1.87-.39-3.81-.81-5.83-1.27l.02-.2c1.28,0,2.53-.29,3.69-.87,1.16-.58,2.13-1.47,2.86-2.66l.18.08-.55,2.06.19,1.08-.47,1.79-.09-.02Z"/>
    <path class="cls-2" d="M279.06,86.71l.55-2.06c-.75,1.21-1.72,2.11-2.9,2.69-1.19.59-2.43.88-3.73.88,2.02.45,3.96.87,5.83,1.27l.44-1.66-.19-1.13Z"/>
    <path class="cls-20" d="M335.18,84.65l.75-2.8h.93l1.13-4.21h-.93l.03-.13c.44-1.64.29-2.9-.44-3.78-.73-.89-2.12-1.34-4.14-1.34-1.39,0-2.83.22-4.29.66-1.46.44-2.79,1.03-3.96,1.78l-.12.08-1.31-5.55.06-.04c1.72-1.05,3.69-1.85,5.86-2.39,2.17-.54,4.32-.81,6.41-.81,4.03,0,6.94.97,8.67,2.88,1.73,1.91,2.06,4.93.98,8.96l-1.4,5.21c-2.25.7-4.66,1.62-7.45,2.68l-.7.27-.09-1.46Z"/>
    <path class="cls-13" d="M336.93,81.95h-.93l-.72,2.7s0,0,0,0l.08,1.33c3-1.14,5.63-2.16,7.97-2.83l1.4-5.21c1.08-4.02.76-6.97-.96-8.87-1.72-1.89-4.58-2.84-8.6-2.84-2.09,0-4.22.27-6.39.81-2.17.54-4.11,1.33-5.83,2.38l1.26,5.34c1.18-.75,2.51-1.35,3.98-1.79,1.47-.44,2.91-.66,4.32-.66,2.06,0,3.46.46,4.21,1.37.75.91.91,2.19.47,3.82v.05s.92,0,.92,0l-1.18,4.41Z"/>
    <polygon class="cls-41" points="335.87 82.05 337.1 77.44 338.24 77.44 337.01 82.05 335.87 82.05"/>
    <polygon class="cls-7" points="336.93 81.95 338.11 77.54 337.18 77.54 336 81.95 336.93 81.95"/>
    <path class="cls-62" d="M304.81,92.96c-4.38,0-9.27-.43-14.95-1.32l-.11-.02,6.73-25.11h13.55c3.31,0,5.77.61,7.32,1.81,1.57,1.21,2.06,2.96,1.47,5.18-.57,2.14-1.92,3.85-4.01,5.08-.38.23-.79.44-1.24.63.72.28,1.31.63,1.77,1.05,1.31,1.2,1.66,2.96,1.05,5.24-.63,2.33-2.02,4.2-4.16,5.55-1.59,1-3.63,1.64-6.06,1.9-.46,0-.91.01-1.36.01ZM304.3,87.68c1.35,0,2.45-.24,3.28-.72.82-.48,1.36-1.18,1.61-2.1.27-1,.15-1.73-.34-2.18-.51-.45-1.46-.69-2.83-.69h-6.49l-1.52,5.68h6.29ZM307.52,80.24c2.02-.02,3.86-.36,5.49-1-1.18-.37-2.66-.56-4.42-.56l-1.07,1.56ZM306.44,77.34c1.28,0,2.34-.25,3.14-.74.8-.49,1.31-1.17,1.54-2.02.25-.95.12-1.61-.42-2.03-.55-.42-1.47-.64-2.75-.64h-5.71l-1.46,5.43h5.65Z"/>
    <path class="cls-10" d="M306.16,92.85c2.42-.25,4.43-.88,6.02-1.88,2.12-1.34,3.49-3.17,4.12-5.49.6-2.25.26-3.97-1.02-5.15-.51-.46-1.17-.83-1.97-1.11-1.75.74-3.74,1.11-5.97,1.11l1.21-1.76c1.94,0,3.52.22,4.76.65.5-.21.99-.45,1.46-.73,2.08-1.22,3.4-2.9,3.97-5.02.59-2.19.11-3.88-1.43-5.07-1.54-1.19-3.96-1.79-7.26-1.79h-13.48l-6.68,24.93c6.07.95,11.37,1.4,16.29,1.3ZM302.16,71.81h5.78c1.31,0,2.24.22,2.81.66.57.44.72,1.15.46,2.13-.24.88-.77,1.58-1.59,2.08-.82.51-1.89.76-3.19.76h-5.78l1.51-5.63ZM299.46,81.9h6.57c1.4,0,2.37.24,2.9.71.53.47.65,1.23.37,2.28-.25.95-.81,1.67-1.66,2.16-.85.49-1.96.73-3.33.73h-6.42l1.58-5.88Z"/>
    <path class="cls-21" d="M318.87,91.26c-.52-.53-.92-1.13-1.17-1.78-.48-1.22-.52-2.61-.11-4.13.41-1.54,1.18-2.94,2.27-4.13,1.09-1.2,2.58-2.14,4.43-2.8,1.84-.65,4.15-.99,6.86-.99h6.16l-1.24,4.61h-5.32c-1.77,0-3.07.29-3.88.86-.8.57-1.33,1.29-1.56,2.15-.25.95-.09,1.68.5,2.23.59.55,1.54.83,2.81.83.21,0,.41-.02.62-.03l.1.19c-3.67,1.27-7.07,2.25-10.38,3.01h-.05s-.04-.03-.04-.03Z"/>
    <path class="cls-16" d="M328.64,88.23c-1.31,0-2.27-.29-2.88-.86-.62-.57-.79-1.35-.53-2.33.24-.88.77-1.62,1.6-2.21.83-.59,2.14-.88,3.94-.88h5.24l1.18-4.41h-6.03c-2.71,0-4.99.33-6.83.98s-3.31,1.58-4.39,2.77c-1.09,1.19-1.84,2.56-2.25,4.09-.4,1.5-.37,2.86.11,4.07.26.66.65,1.24,1.15,1.74,3.8-.87,7.25-1.93,10.37-3.01-.23.02-.45.04-.68.04Z"/>
    <path class="cls-65" d="M307.14,80.44l1.31-1.92c.17,0,.33,0,.49,0,1.79,0,3.24.22,4.38.62l.24.09-.24.1c-1.76.74-3.78,1.12-6.01,1.12h-.19Z"/>
    <path class="cls-59" d="M307.33,80.34c2.23,0,4.22-.37,5.97-1.11-1.24-.43-2.82-.65-4.76-.65l-1.21,1.76Z"/>
    <path class="cls-6" d="M270.48,87.76c-2.71-.62-5.54-1.29-8.54-2.01l-.1-.02s.06-.32.08-.37c.41-1.55,1.18-2.94,2.27-4.13,1.09-1.2,2.58-2.14,4.43-2.8,1.84-.65,4.15-.99,6.86-.99h6.16l-1.24,4.61h-5.32c-1.77,0-3.07.29-3.88.86-.8.57-1.33,1.29-1.56,2.15-.25.95-.09,1.68.5,2.23.12.11.26.2.4.28l-.07.18Z"/>
    <path class="cls-48" d="M270.09,87.37c-.62-.57-.79-1.35-.53-2.33.24-.88.77-1.62,1.6-2.21.83-.59,2.14-.88,3.94-.88h5.24l1.18-4.41h-6.03c-2.71,0-4.99.33-6.83.98s-3.31,1.58-4.39,2.77c-1.09,1.19-1.84,2.56-2.25,4.09-.02.09-.03.18-.05.27,2.99.72,5.83,1.39,8.54,2.01-.15-.09-.29-.18-.41-.3Z"/>
    <path class="cls-43" d="M259.08,85.06c-2.29-.55-4.67-1.14-7.13-1.74l-.1-.02,2.77-10.35h-8.18l-1.47,4.59c-.37,1.25-.77,2.48-1.2,3.68l-.03.09-.09-.02c-2.12-.53-4.2-1.07-6.24-1.6l-.1-.03.04-.1c.27-.78.54-1.57.81-2.41l3.24-10.6h22.74l-4.97,18.56-.09-.02ZM256.23,72.74l-.96-1.47-.39,1.47h1.35ZM246.3,72.74l.48-1.5-1.71,1.5h1.23Z"/>
    <path class="cls-25" d="M244.88,77.49l1.49-4.66h-1.57l2.18-1.91-.61,1.91h8.38l.49-1.81,1.18,1.81h-1.67l-2.78,10.38c2.46.6,4.84,1.19,7.13,1.74l4.92-18.34h-22.54l-3.21,10.54c-.27.84-.54,1.63-.81,2.41,2.03.54,4.12,1.07,6.23,1.6.42-1.17.82-2.39,1.2-3.67Z"/>
    <path class="cls-63" d="M333.31,86.64c.74-.54,1.37-1.23,1.88-2.05l.18.08-.4,1.51-1.56.63-.09-.17Z"/>
    <path class="cls-76" d="M333.37,86.72c.51-.19,1.01-.38,1.5-.56l.41-1.51c-.53.85-1.16,1.53-1.9,2.08Z"/>
    <polygon class="cls-5" points="244.54 72.94 247.19 70.62 246.44 72.94 244.54 72.94"/>
    <polygon class="cls-55" points="244.8 72.84 246.37 72.84 246.98 70.93 244.8 72.84"/>
    <polygon class="cls-54" points="221.63 72.94 224.19 70.96 223.66 72.94 221.63 72.94"/>
    <polygon class="cls-45" points="221.92 72.84 223.59 72.84 224.02 71.22 221.92 72.84"/>
    <path class="cls-17" d="M222.84,75.62c-2.42-.7-4.78-1.4-7.04-2.09l-.09-.03,1.87-6.99h21.33l-1.72,6.42h-13.52l-.73,2.71-.1-.03ZM223.51,72.74l.34-1.26-1.63,1.26h1.3Z"/>
    <path class="cls-30" d="M223.59,72.84h-1.67l2.1-1.62-.43,1.62h13.52l1.67-6.22h-21.12l-1.83,6.82c2.26.69,4.61,1.38,7.03,2.09l.72-2.69Z"/>
    <polygon class="cls-22" points="254.62 72.94 255.2 70.78 256.6 72.94 254.62 72.94"/>
    <polygon class="cls-11" points="255.24 71.03 254.75 72.84 256.42 72.84 255.24 71.03"/>
    <path class="cls-39" d="M285.59,90.92c-2.09-.38-4.29-.81-6.71-1.31l-.16-.03.11-.13c.37-.44.67-.85.92-1.27l-.23-3.52.75-2.8h.93l1.13-4.21h-.93l.03-.13c.44-1.64.29-2.9-.44-3.78-.73-.89-2.12-1.34-4.14-1.34-1.39,0-2.83.22-4.29.66-1.46.44-2.79,1.04-3.96,1.78l-.12.08-1.31-5.55.06-.04c1.72-1.05,3.69-1.85,5.86-2.39,2.17-.54,4.32-.81,6.41-.81,4.03,0,6.94.97,8.67,2.88,1.73,1.91,2.06,4.93.98,8.96l-3.48,12.98-.09-.02Z"/>
    <path class="cls-24" d="M281.27,81.95h-.93l-.72,2.7s0,0,0,0l.22,3.58c-.28.46-.6.88-.93,1.29,2.34.49,4.57.93,6.7,1.31l3.45-12.89c1.08-4.02.76-6.97-.96-8.87-1.72-1.89-4.58-2.84-8.6-2.84-2.09,0-4.22.27-6.39.81-2.17.54-4.11,1.33-5.83,2.38l1.26,5.34c1.18-.75,2.51-1.35,3.98-1.79,1.47-.44,2.91-.66,4.32-.66,2.06,0,3.46.46,4.21,1.37.75.91.91,2.19.47,3.82v.05s.92,0,.92,0l-1.18,4.41Z"/>
    <polygon class="cls-12" points="280.21 82.05 281.44 77.44 282.58 77.44 281.34 82.05 280.21 82.05"/>
    <polygon class="cls-52" points="281.27 81.95 282.45 77.54 281.52 77.54 280.34 81.95 281.27 81.95"/>
    <path class="cls-37" d="M333.41,93.08l.92-3.45c.46-.54.8-1,1.08-1.46l-.16-2.27.65-.25c2.8-1.06,5.21-1.98,7.4-2.61l.17-.05-2.7,10.08h-7.36Z"/>
    <path class="cls-47" d="M335.5,88.23c-.32.52-.68.99-1.07,1.43l-.89,3.32h7.15l2.63-9.83c-2.33.67-4.97,1.69-7.97,2.83l.14,2.25Z"/>
    <path class="cls-4" d="M333.41,93.08l.92-3.45c.46-.54.8-1,1.08-1.46l-.16-2.27.65-.25c2.8-1.06,5.21-1.98,7.4-2.61l.17-.05-2.7,10.08h-7.36Z"/>
    <path class="cls-58" d="M335.5,88.23c-.32.52-.68.99-1.07,1.43l-.89,3.32h7.15l2.63-9.83c-2.33.67-4.97,1.69-7.97,2.83l.14,2.25Z"/>
    <path class="cls-51" d="M334.33,89.63l.49-1.83-.19-1.08.15-.59.22-.13.46-.17.14,2.39c-.3.53-.65.99-1.09,1.51l-.17-.09Z"/>
    <path class="cls-33" d="M335.36,85.98c-.16.06-.32.12-.49.18l-.15.55.19,1.13-.49,1.83c.39-.45.75-.91,1.07-1.43l-.14-2.25Z"/>
    <path class="cls-64" d="M334.33,89.63l.49-1.83-.19-1.08.15-.59.22-.13.46-.17.14,2.39c-.3.53-.65.99-1.09,1.51l-.17-.09Z"/>
    <path class="cls-57" d="M335.36,85.98c-.16.06-.32.12-.49.18l-.15.55.19,1.13-.49,1.83c.39-.45.75-.91,1.07-1.43l-.14-2.25Z"/>
    <polygon class="cls-38" points="278.67 89.63 278.73 89.37 278.99 89.43 278.98 89.58 278.63 89.94 278.67 89.63"/>
    <path class="cls-34" d="M278.81,89.49l-.04.17c.04-.05.09-.1.14-.15-.03,0-.06-.01-.09-.02Z"/>
    <polygon class="cls-29" points="278.67 89.63 278.73 89.37 278.99 89.43 278.98 89.58 278.63 89.94 278.67 89.63"/>
    <path class="cls-72" d="M278.81,89.49l-.04.17c.04-.05.09-.1.14-.15-.03,0-.06-.01-.09-.02Z"/>
    <path class="cls-70" d="M232.15,93.67c-.59,0-1.21-.06-1.83-.17-.62-.11-1.29-.25-2-.42l-.11-.02,2.11-6.56h.08c.22.05.44.09.64.14.19.05.36.07.52.07.85,0,1.61-.26,2.25-.76.65-.51,1.23-1.23,1.73-2.13.5-.9.96-1.94,1.38-3.07.12-.33.24-.68.36-1.03l.1-.27.09.02c2.03.54,4.12,1.07,6.23,1.6l.11.03-.04.1c-.37,1.03-.72,1.95-1.08,2.8-.82,1.95-1.74,3.67-2.74,5.09-1,1.42-2.15,2.55-3.42,3.36-1.27.81-2.75,1.22-4.39,1.22Z"/>
    <path class="cls-3" d="M235.63,83.86c-.51.92-1.09,1.63-1.75,2.16-.66.52-1.44.78-2.32.78-.16,0-.35-.02-.54-.07-.2-.05-.41-.09-.63-.12l-2.05,6.37c.71.16,1.37.3,2,.42.62.11,1.23.17,1.82.17,1.63,0,3.08-.4,4.34-1.2,1.26-.8,2.39-1.91,3.39-3.33,1-1.42,1.91-3.11,2.73-5.07.37-.89.73-1.82,1.07-2.79-2.12-.53-4.2-1.07-6.23-1.6-.14.41-.29.82-.43,1.21-.42,1.14-.88,2.17-1.39,3.09Z"/>
    <path class="cls-44" d="M232.15,93.67c-.59,0-1.21-.06-1.83-.17-.62-.11-1.29-.25-2-.42l-.11-.02,2.11-6.56h.08c.22.05.44.09.64.14.19.05.36.07.52.07.85,0,1.61-.26,2.25-.76.65-.51,1.23-1.23,1.73-2.13.5-.9.96-1.94,1.38-3.07.12-.33.24-.68.36-1.03l.1-.27.09.02c2.03.54,4.12,1.07,6.23,1.6l.11.03-.04.1c-.37,1.03-.72,1.95-1.08,2.8-.82,1.95-1.74,3.67-2.74,5.09-1,1.42-2.15,2.55-3.42,3.36-1.27.81-2.75,1.22-4.39,1.22Z"/>
    <path class="cls-42" d="M235.63,83.86c-.51.92-1.09,1.63-1.75,2.16-.66.52-1.44.78-2.32.78-.16,0-.35-.02-.54-.07-.2-.05-.41-.09-.63-.12l-2.05,6.37c.71.16,1.37.3,2,.42.62.11,1.23.17,1.82.17,1.63,0,3.08-.4,4.34-1.2,1.26-.8,2.39-1.91,3.39-3.33,1-1.42,1.91-3.11,2.73-5.07.37-.89.73-1.82,1.07-2.79-2.12-.53-4.2-1.07-6.23-1.6-.14.41-.29.82-.43,1.21-.42,1.14-.88,2.17-1.39,3.09Z"/>
    <path class="cls-36" d="M325.39,93.47c-2.03,0-3.72-.36-5.01-1.07-.57-.31-1.06-.68-1.51-1.14l-.13-.13.17-.04c3.31-.76,6.7-1.74,10.36-3.01,1.09-.09,2.1-.37,3.04-.84.31-.16.64-.35.98-.61l1.71-.65-.2.73.19,1.08-.49,1.87c-.88,1.03-1.9,1.83-3.04,2.43-1.72.9-3.77,1.36-6.09,1.36Z"/>
    <path class="cls-18" d="M325.39,93.37c2.32,0,4.33-.45,6.04-1.35,1.17-.61,2.15-1.41,2.99-2.36l.49-1.83-.19-1.13.15-.55c-.49.19-.99.37-1.5.56-.32.23-.64.44-1,.62-.98.48-2,.76-3.05.84-3.13,1.08-6.57,2.14-10.37,3.01.42.42.9.8,1.49,1.12,1.28.7,2.94,1.05,4.96,1.05Z"/>
    <path class="cls-15" d="M325.39,93.47c-2.03,0-3.72-.36-5.01-1.07-.57-.31-1.06-.68-1.51-1.14l-.13-.13.17-.04c3.31-.76,6.7-1.74,10.36-3.01,1.09-.09,2.1-.37,3.04-.84.31-.16.64-.35.98-.61l1.71-.65-.2.73.19,1.08-.49,1.87c-.88,1.03-1.9,1.83-3.04,2.43-1.72.9-3.77,1.36-6.09,1.36Z"/>
    <path class="cls-71" d="M325.39,93.37c2.32,0,4.33-.45,6.04-1.35,1.17-.61,2.15-1.41,2.99-2.36l.49-1.83-.19-1.13.15-.55c-.49.19-.99.37-1.5.56-.32.23-.64.44-1,.62-.98.48-2,.76-3.05.84-3.13,1.08-6.57,2.14-10.37,3.01.42.42.9.8,1.49,1.12,1.28.7,2.94,1.05,4.96,1.05Z"/>
    <path class="cls-8" d="M249.23,93.08l2.67-9.98.1.02c2.46.6,4.84,1.19,7.13,1.74l.1.02-2.19,8.19h-7.8Z"/>
    <path class="cls-68" d="M249.36,92.98h7.59l2.15-8.02c-2.29-.55-4.67-1.14-7.13-1.74l-2.61,9.76Z"/>
    <path class="cls-66" d="M249.23,93.08l2.67-9.98.1.02c2.46.6,4.84,1.19,7.13,1.74l.1.02-2.19,8.19h-7.8Z"/>
    <path class="cls-46" d="M249.36,92.98h7.59l2.15-8.02c-2.29-.55-4.67-1.14-7.13-1.74l-2.61,9.76Z"/>
    <path class="cls-1" d="M210.47,93.08l5.3-19.77.1.03c2.26.69,4.61,1.38,7.03,2.09l.09.03-4.72,17.62h-7.8Z"/>
    <path class="cls-28" d="M218.19,92.98l4.68-17.45c-2.42-.7-4.78-1.4-7.03-2.09l-5.24,19.54h7.59Z"/>
    <path class="cls-60" d="M210.47,93.08l5.3-19.77.1.03c2.26.69,4.61,1.38,7.03,2.09l.09.03-4.72,17.62h-7.8Z"/>
    <path class="cls-31" d="M218.19,92.98l4.68-17.45c-2.42-.7-4.78-1.4-7.03-2.09l-5.24,19.54h7.59Z"/>
    <path class="cls-26" d="M269.73,93.47c-2.03,0-3.72-.36-5.01-1.07-1.3-.71-2.2-1.69-2.68-2.92-.45-1.13-.5-2.43-.17-3.86l.02-.1.1.02c2.99.72,5.83,1.39,8.53,2.01.62.38,1.44.56,2.45.56,2.04.46,3.98.88,5.85,1.27l.1.02-.07.27c-.88,1.03-1.9,1.83-3.04,2.43-1.72.9-3.77,1.36-6.09,1.36Z"/>
    <path class="cls-69" d="M262.13,89.45c.48,1.21,1.36,2.16,2.64,2.87,1.28.7,2.94,1.05,4.96,1.05,2.32,0,4.33-.45,6.04-1.35,1.17-.61,2.15-1.41,2.99-2.36l.04-.17c-1.87-.39-3.81-.81-5.83-1.27,0,0,0,0,0,0-1.05,0-1.87-.19-2.47-.56-2.71-.62-5.54-1.29-8.54-2.01-.33,1.39-.28,2.66.16,3.8Z"/>
    <path class="cls-56" d="M269.73,93.47c-2.03,0-3.72-.36-5.01-1.07-1.3-.71-2.2-1.69-2.68-2.92-.45-1.13-.5-2.43-.17-3.86l.02-.1.1.02c2.99.72,5.83,1.39,8.53,2.01.62.38,1.44.56,2.45.56,2.04.46,3.98.88,5.85,1.27l.1.02-.07.27c-.88,1.03-1.9,1.83-3.04,2.43-1.72.9-3.77,1.36-6.09,1.36Z"/>
    <path class="cls-19" d="M262.13,89.45c.48,1.21,1.36,2.16,2.64,2.87,1.28.7,2.94,1.05,4.96,1.05,2.32,0,4.33-.45,6.04-1.35,1.17-.61,2.15-1.41,2.99-2.36l.04-.17c-1.87-.39-3.81-.81-5.83-1.27,0,0,0,0,0,0-1.05,0-1.87-.19-2.47-.56-2.71-.62-5.54-1.29-8.54-2.01-.33,1.39-.28,2.66.16,3.8Z"/>
    <path class="cls-27" d="M289.35,93.08l.44-1.64h.09c5.67.9,10.55,1.33,14.92,1.33.45,0,.9,0,1.35-.01v.2c-.81.09-1.69.13-2.61.13h-14.19Z"/>
    <path class="cls-74" d="M303.55,92.98c.92,0,1.79-.04,2.61-.13-4.92.1-10.22-.36-16.29-1.3l-.38,1.43h14.06Z"/>
    <path class="cls-14" d="M289.35,93.08l.44-1.64h.09c5.67.9,10.55,1.33,14.92,1.33.45,0,.9,0,1.35-.01v.2c-.81.09-1.69.13-2.61.13h-14.19Z"/>
    <path class="cls-35" d="M303.55,92.98c.92,0,1.79-.04,2.61-.13-4.92.1-10.22-.36-16.29-1.3l-.38,1.43h14.06Z"/>
    <path class="cls-9" d="M277.74,93.08l.93-3.47.19-.21h.06c2.42.52,4.61.95,6.7,1.33l.11.02-.62,2.33h-7.36Z"/>
    <path class="cls-50" d="M278.76,89.66l-.89,3.32h7.15l.58-2.15c-2.14-.39-4.37-.83-6.7-1.31-.04.05-.09.1-.14.15Z"/>
    <path class="cls-40" d="M277.74,93.08l.93-3.47.19-.21h.06c2.42.52,4.61.95,6.7,1.33l.11.02-.62,2.33h-7.36Z"/>
    <path class="cls-49" d="M278.76,89.66l-.89,3.32h7.15l.58-2.15c-2.14-.39-4.37-.83-6.7-1.31-.04.05-.09.1-.14.15Z"/>
  </g>
</svg>