<?xml version="1.0" encoding="UTF-8"?>
<svg xmlns="http://www.w3.org/2000/svg" version="1.1" viewBox="0 0 3424 1248">
  <!-- Generator: Adobe Illustrator 28.6.0, SVG Export Plug-In . SVG Version: 1.2.0 Build 709)  -->
  <g>
    <g id="_Слой_1" data-name="Слой_1">
      <g>
        <path d="M2892.21,708.55c-3.92-.37-6.5-.77-9.08-.83-58.97-1.31-117.93-2.56-176.9-3.88-10.99-.25-21.98-.64-32.97-1.15-6.63-.31-11.2,1.35-13.82,8.46-4.26,11.53-9.33,22.8-14.66,33.89-13.13,27.3-26.61,54.43-39.95,81.62-24.2,49.32-55.96,93.74-89.08,137.27-3.63,4.77-6.72,9.95-10.44,14.64-3.5,4.41-7.09,8.9-11.35,12.52-9.49,8.06-24.71,7.33-33.86-1.08-11.82-10.86-13.67-21.13-4.93-33.5,12.87-18.23,26.23-36.11,39.49-54.06,34.63-46.82,62.74-97.37,86.46-150.45,3.94-8.81,8.26-17.46,12.2-26.27,2.41-5.4,4.42-10.98,7.13-17.8-12.37,1.04-23.27,1.78-34.13,2.91-53.54,5.58-105.74,17.15-156.84,34.15-25.34,8.43-50.57,16.89-73.74,30.38-23.46,13.66-45.36,29.34-61.39,51.8-9.73,13.65-14.91,28.94-14.7,45.84.1,7.66,1.6,15.14,9.56,18.27,7.91,3.11,15.2.24,21.04-5.46,3.29-3.21,5.97-7.13,8.57-10.97,4.95-7.33,11.01-12.87,20.49-11.62,10.09,1.33,17.44,7.08,20.52,16.77,5.1,16.01,4.56,32.12-.99,48.04-5.99,17.16-18.29,29.13-32.52,39.44-31.38,22.73-66.76,35.32-104.64,42.4-43.47,8.13-86.88,6.79-130.4,1.59-36.05-4.31-72.19-8.12-108.07-13.58-29.6-4.5-58.97-10.67-88.28-16.85-40.15-8.47-80.75-13.75-121.39-19-49.74-6.43-99.67-7.82-149.66-5.65-61.08,2.65-121.62,9.86-179.78,29.84-27.7,9.51-55.21,20.32-78.09,39.43-10.68,8.92-20.07,19.39-29.94,29.26-3.06,3.05-5.5,6.75-8.72,9.61-7.02,6.23-16.34,4.59-21.26-3.48-5.08-8.34-3.43-16.73.45-24.83,6.57-13.71,16.44-24.92,27.32-35.41,23.21-22.36,51.45-36.84,80.14-50.15,48.02-22.27,98.39-36.95,151.14-43.1,62.13-7.24,124.38-7.56,186.64-2.95,60.61,4.49,119.96,16.65,179.15,30.13,68.23,15.54,137.14,27.86,206.83,34.58,43,4.15,85.95,2.11,127.59-11.38,15.58-5.05,30.64-11.31,43.29-22.17,1.51-1.3,3.01-2.64,4.41-4.06.4-.41.44-1.17.9-2.53-5.08,1.27-9.73,2.59-14.45,3.59-50.56,10.66-84.38-26.1-87.47-65.95-2.69-34.6,11.7-63,34.63-87.44,22.67-24.16,50.65-41.19,80.33-55.11,52.76-24.75,108.12-41.06,165.68-50.67,44.79-7.48,89.77-12.21,135.04-14.68,6.63-.36,9.79-2.53,12.4-8.72,19.53-46.33,38.29-93.04,59.7-138.5,22.05-46.8,48.98-90.95,84.96-128.75,30.97-32.54,64.89-61.37,106.37-80,28.75-12.91,58.7-21.55,90.1-25.08,23.2-2.61,46.41-4.6,69.75-2.19,4.28.44,8.63,1.12,12.69,2.48,10.06,3.36,15.51,11.87,14.84,22.31-.53,8.33-6.84,15.12-16.91,17.22-5.17,1.08-10.57,1.1-15.87,1.41-4.65.28-9.35-.02-13.96.5-8.31.94-9.29,2.17-9.78,10.77-1.33,23.29-2.3,46.6-3.98,69.86-3.45,47.86-7.3,95.68-10.93,143.53-2.45,32.23-4.8,64.47-7.24,96.7-2.82,37.21-5.83,74.4-8.49,111.62-2.61,36.56-4.87,73.15-7.32,109.73-.6,8.97-1.77,17.93-1.91,26.9-.27,17.25,7.71,26.55,24.86,29.49,16.03,2.76,31.93.63,47.66-2.3,26.64-4.97,52.58-12.22,75.95-26.57,20.73-12.72,38.91-28.07,49.94-50.44,6.05-12.27,10.3-24.92,4.01-38.3-2.19-4.65-5.54-9.08-9.32-12.57-5.53-5.1-12.26-6.38-19.44-2.77-2.36,1.19-4.97,1.88-7.48,2.79-14.61,5.28-26.96-8.96-26.41-20.29.66-13.62,11.25-26.5,26.67-29.81,25.2-5.41,46.84,2.47,64.96,19.89,13.74,13.21,20.69,30.18,22.24,49.02,1.76,21.47-2.51,41.74-14.22,60.2-24.44,38.5-58.27,65.12-100.82,81.32-51.08,19.44-104.07,24.71-158.15,22.59-9.65-.38-19.28-1.4-28.9-2.28-21.3-1.95-30.58-14.3-33.74-34.47-.76-4.87-.32-9.98-.03-14.95,3.45-61.22,6.97-122.43,10.5-183.64.5-8.62,1.17-17.22,1.84-27.02ZM2679.04,654.28c5.1.43,8.95.93,12.82,1.04,24.31.74,48.62,1.26,72.92,2.11,38.95,1.36,77.89,3.03,116.83,4.35,12.54.43,13.74-.89,15.34-12.91.13-.99.3-1.98.38-2.97,2.92-35.52,5.83-71.03,8.75-106.55,2.4-29.21,5.06-58.4,7.18-87.63,2.84-39.17,5.26-78.38,7.8-117.57.03-.48-.74-1-1.71-2.25-3.11.91-6.61,1.74-9.97,2.95-38.66,13.89-71.9,35.9-99.51,66.39-42.64,47.08-72.05,102.08-95.61,160.47-10.71,26.54-20.31,53.53-30.43,80.31-1.38,3.66-2.84,7.28-4.79,12.27Z"/>
        <path d="M1296.56,738.37c8.08-22.15,15.66-42.39,22.87-62.76,21.88-61.84,43.57-123.74,65.44-185.58,8.88-25.11,17.64-50.28,27.28-75.1,4.31-11.09,9.84-21.91,16.22-31.95,8.44-13.26,21.1-21.92,36.99-22.74,28.26-1.46,56.58-1.8,84.88-2.18,4.83-.07,10.05,1.15,14.46,3.16,14.92,6.81,16.43,23.95,3.29,33.76-7.76,5.79-16.69,8.01-26.19,8.58-5.97.36-11.97.7-17.89,1.55-8.41,1.21-15.11,5.37-18.69,13.34-5.86,13.04-12.21,25.93-17.06,39.35-25.13,69.53-49.52,139.32-74.79,208.79-26.29,72.28-52.56,144.59-80.21,216.36-20.28,52.65-45.72,102.99-78.84,148.87-30.91,42.82-68.1,79.39-114.34,105.8-25.88,14.78-53.2,26.15-82.75,31.32-4.88.85-9.97,1.04-14.92.78-7.78-.41-14.38-3.43-17.28-11.31-2.86-7.75,1.14-13.83,6.39-18.65,4.1-3.76,9.02-6.97,14.11-9.25,54.22-24.35,96.17-62.31,128.05-112.34,27.67-43.42,51.25-88.81,70.41-136.54,7.94-19.77,15.62-39.65,23.35-59.51,1.08-2.76,1.79-5.67,3.01-9.59-3.79-.98-7.19-1.93-10.62-2.73-43.88-10.2-85.19-26.32-122.26-52.43-27.4-19.3-51.55-42.08-73.95-66.92-42.19-46.77-73.4-100.38-99.24-157.45-12.65-27.93-23.93-56.37-33.1-85.64-1.09-3.48-2.81-6.76-4.15-10.16-3.21-8.15-9.48-12.67-17.69-14.73-6.46-1.62-13.01-2.85-19.45-4.53-4.17-1.09-8.28-2.49-12.29-4.07-7.24-2.85-12.89-7.48-13.42-15.79-.57-8.99,3.3-16.41,10.86-21.13,4.12-2.57,9.09-4.3,13.9-5.15,6.85-1.2,13.9-1.51,20.89-1.71,18.99-.54,37.98-.84,56.98-1.19,4.33-.08,8.67-.1,12.99.15,11.02.63,18.97,5.81,22.92,16.33,5.85,15.58,11.95,31.09,17.21,46.87,12.12,36.39,25.89,72.05,43.71,106.1,24.28,46.41,54.76,88.13,91.63,125.4,28.67,28.97,61.64,50.75,100.27,63.61,13.2,4.39,26.91,7.25,41.05,10.98Z"/>
        <path d="M600.6,522.24c-5.72,4.86-9.67,8.37-13.77,11.68-47.08,38.11-100.76,54.41-161.1,48.8-39.1-3.63-73.65-19.26-106.98-39-55.74-33.01-88.62-82.34-104.49-143.94-4.39-17.05-7.14-34.55-10.18-51.92-2.16-12.37-2.93-13.55-15.32-15.75-5.57-.99-11.2-1.83-16.65-3.3-7.59-2.04-13.14-6.48-14.33-14.83-1.25-8.76-.32-17.14,8.23-21.82,5.4-2.95,11.58-5.78,17.57-6.14,31.93-1.9,63.9-3.16,95.87-4.29,13.3-.47,26.64-.52,39.93.09,9.85.45,16.66,6.53,18.96,15.01,2.25,8.28-1.14,16.71-9.81,22.1-3.84,2.39-8.45,3.78-12.9,4.85-4.5,1.08-9.25,1.1-13.87,1.77-9.68,1.39-11.01,2.21-9.79,12.23,2.06,16.82,3.48,34.02,8.28,50.14,13.02,43.66,35.17,81.96,72.08,110.18,27.67,21.15,58.78,34.12,93.78,35.79,29.64,1.41,56.53-8.54,81.15-24.12,16.59-10.49,32.06-22.67,45.21-37.58,7.42-8.42,10.99-17.72,11.62-28.93,2.35-41.92,5.08-83.82,7.96-125.71.59-8.6,1.96-17.21,3.82-25.64,3.23-14.65,12.94-24.29,27.57-25.05,33.58-1.77,67.26-2.44,100.89-2.32,13.68.05,21.01,10.44,19.89,23.66-.55,6.53-3.4,11.92-9.22,14.44-5.98,2.59-12.5,4.3-18.96,5.3-7.87,1.22-15.94,1.1-23.88,1.92-6.61.68-11.15,4.41-12.79,10.93-1.37,5.47-2.87,11.02-3.21,16.61-2.87,46.57-5.45,93.16-8.17,139.74-3.09,52.9-6.23,105.8-9.37,158.69-2.93,49.23-5.88,98.47-8.88,147.7-.73,11.97-1.71,23.93-2.58,35.9-.15,1.99-.45,3.98-.47,5.98-.15,10.72,2.44,13.84,13.25,14.29,11.32.47,22.66.15,33.99.33,8.2.14,15.81,1.99,21.97,7.98,8.58,8.34,8.59,19.64-1.09,26.65-4.92,3.56-11.19,6.87-17.05,7.24-35.23,2.24-70.52,3.61-105.8,5.19-2.64.12-5.32-.28-7.97-.56-17.35-1.84-27.5-11.77-27.7-29.28-.17-14.61,1.23-29.27,2.53-43.85,3.71-41.48,8.31-82.88,11.49-124.4,3.99-52.16,6.93-104.4,10.29-156.61.17-2.58.02-5.18.02-10.16Z"/>
        <path d="M1974.28,620.62c-2.07.53-3.08.58-3.87,1.03-39.39,22.3-81.69,25.02-125.09,17.59-40.83-6.99-76.85-25.33-110.52-48.97-42.14-29.58-70.78-69.27-87.19-117.54-5.84-17.18-8.4-35.57-11.43-53.58-2.22-13.19-1.77-13.47-14.48-16.15-5.5-1.16-10.85-3.06-16.29-4.54-8.84-2.4-11.69-9.28-12.73-17.29-1.03-7.93,1.44-15.05,8.5-18.86,5.7-3.07,12.34-5.83,18.67-6.08,41.96-1.64,83.94-2.62,125.92-3.63,4.96-.12,9.99.61,14.9,1.42,9.53,1.58,16.85,8.06,17.73,15.23,1.04,8.47-4.95,19.38-13.42,22.59-5.2,1.97-10.94,2.64-16.51,3.44-4.6.65-9.35.29-13.95.98-8.49,1.27-11.2,4.07-10.6,12.62.63,8.92,2.05,17.85,3.89,26.62,9.72,46.4,33.99,83.7,72.25,111.38,28.42,20.56,60.13,34.31,94.98,39.93,14.89,2.4,29.9,2.29,44.71-1.02,9.22-2.06,17.49-6.06,24.81-12.27,9.97-8.46,14.66-18.57,15.57-31.97,3.31-48.53,7.57-97,11.89-145.46.82-9.2,2.77-18.48,5.61-27.27,4.71-14.6,15.36-23.09,30.67-25.04,7.59-.96,15.27-1.37,22.92-1.59,18.99-.54,37.99-.9,56.98-1.18,5.99-.09,12.01.02,17.96.59,9.35.9,15.99,7.29,17.61,16.29,1.62,9-2,18.6-10.02,22.01-6.9,2.94-14.57,4.43-22.05,5.56-6.21.94-12.65.2-18.97.58-10.29.62-13.78,3.49-14.85,13.74-2.18,20.87-4.08,41.77-5.59,62.69-3.91,54.18-7.69,108.36-11.26,162.56-3.26,49.55-6.1,99.13-9.25,148.68-1.5,23.61-3.4,47.2-4.92,70.81-.58,8.97-1,17.99-.75,26.96.26,9.42,4.27,14.13,13.46,15.98,6.82,1.38,13.84,2.18,20.8,2.42,15.32.54,30.66.49,45.99.81,10.03.21,19.13,2.73,25.52,11.3,6.25,8.39,5.29,18-3.7,23.24-5.84,3.4-12.95,6.09-19.61,6.38-44.61,1.93-89.25,3.21-133.88,4.44-5.57.15-11.4-.46-16.74-2-12.61-3.65-20.66-12.28-22.42-25.37-1.14-8.52-1.38-17.33-.68-25.9,2.95-35.86,6.71-71.65,9.59-107.51,2.88-35.87,5.07-71.8,7.52-107.7.84-12.3,1.57-24.61,2.26-36.92.18-3.17.03-6.36.03-10.04Z"/>
      </g>
    </g>
  </g>
</svg>