<?xml version="1.0" encoding="UTF-8"?>
<svg id="_x32_" xmlns="http://www.w3.org/2000/svg" viewBox="0 0 162.81 139.32">
  <g>
    <path d="M140.82,46.53c-.23.1-.39.16-.53.24-3.29,1.77-6.58,3.53-9.87,5.3-.61.33-1.23.65-1.85.96-.38.19-.57.43-.5.89.12.77.19,1.54.25,2.31.13,1.9.23,3.81.34,5.72.2,3.46-.17,6.88-.64,10.3-.06.38-.06.75-.12,1.13-.05.35-.11.71-.23,1.04-.27.74-1.13,1.17-1.9.99-.99-.23-1.41-.73-1.31-1.69.15-1.4.32-2.8.5-4.19.45-3.65.43-7.29.09-10.94-.06-.61-.09-1.21-.14-1.82-.04-.37-.1-.74-.16-1.2-.65.44-1.23.82-1.79,1.23-2.77,1.97-5.3,4.24-7.59,6.76-1.13,1.25-2.26,2.5-3.12,3.96-.87,1.48-1.59,3.02-1.77,4.75-.11,1.05.08,2.05.62,2.97.24.41.56.78,1.1.71.54-.08.85-.46.99-.95.08-.28.11-.58.13-.87.05-.56.21-1.05.77-1.27.6-.24,1.18-.15,1.66.28.78.72,1.25,1.62,1.44,2.66.2,1.13-.1,2.17-.56,3.17-1.02,2.22-2.58,4.01-4.45,5.58-2.14,1.8-4.58,3.08-7.13,4.15-2.12.89-4.23,1.8-6.38,2.62-1.77.68-3.58,1.25-5.39,1.82-2.48.79-4.88,1.76-7.29,2.74-2.94,1.19-5.74,2.68-8.43,4.35-3.29,2.05-6.4,4.33-8.98,7.24-1.23,1.39-2.41,2.83-3.08,4.59-.31.83-.5,1.69-.74,2.54-.07.27-.09.54-.18.8-.2.56-.76.76-1.28.47-.54-.3-.71-.81-.75-1.38-.06-.95.13-1.88.4-2.79.58-1.95,1.69-3.62,2.86-5.24,1.96-2.72,4.28-5.09,6.99-7.07,3.2-2.33,6.62-4.29,10.2-5.98,3.48-1.64,7.13-2.82,10.82-3.92,4.25-1.27,8.43-2.74,12.48-4.54,2.5-1.11,4.81-2.56,6.68-4.6.7-.76,1.34-1.57,1.7-2.56.04-.12.08-.24.12-.36,0-.04,0-.08-.03-.17-.24.23-.45.45-.69.65-2.46,2.16-5.46,1.2-6.88-.89-1.23-1.81-1.32-3.82-.81-5.87.5-2.03,1.51-3.84,2.72-5.52,2.14-3,4.69-5.62,7.56-7.94,2.24-1.8,4.57-3.47,6.98-5.01.35-.23.46-.44.41-.86-.37-3.15-.78-6.29-1.02-9.45-.24-3.25-.13-6.51.68-9.7.69-2.75,1.67-5.39,3.37-7.7,1.18-1.61,2.57-3.01,4.19-4.18,1.2-.87,2.41-1.7,3.78-2.29.25-.11.51-.21.78-.26.66-.13,1.23.16,1.51.77.23.48.09,1.05-.4,1.47-.25.22-.54.39-.83.57-.25.16-.52.29-.76.46-.43.31-.45.41-.21.89.65,1.32,1.32,2.63,1.96,3.96,1.3,2.73,2.57,5.48,3.86,8.21.87,1.85,1.74,3.68,2.61,5.53,1,2.13,2,4.26,3.01,6.39,1,2.09,2.01,4.17,3.01,6.24.25.51.46,1.04.73,1.53.53.96,1.25,1.21,2.29.84.97-.34,1.78-.96,2.56-1.61,1.31-1.1,2.52-2.31,3.36-3.82.75-1.34,1.27-2.75,1.18-4.32-.05-.86-.21-1.68-.97-2.22-.26-.19-.59-.33-.91-.4-.46-.11-.88.03-1.16.46-.09.14-.22.26-.33.39-.64.75-1.76.35-2.09-.29-.39-.77-.2-1.8.54-2.47,1.22-1.08,2.66-1.32,4.2-.93,1.17.3,2.08,1.01,2.75,1.99.76,1.12,1.16,2.37,1.09,3.74-.15,2.87-1.19,5.38-3.03,7.6-2.21,2.66-4.96,4.6-8.01,6.17-.55.28-1.11.52-1.66.78-1.24.56-2.13.17-2.93-.84-.2-.25-.33-.54-.46-.82-1.72-3.47-3.42-6.93-5.13-10.4-.24-.49-.47-.98-.74-1.54h-.01ZM127.38,50.2c.29-.14.52-.23.74-.34,1.36-.71,2.72-1.45,4.08-2.15,2.19-1.14,4.39-2.26,6.58-3.4.7-.37.73-.48.44-1.18-.02-.06-.04-.12-.07-.18-.95-2.04-1.89-4.08-2.84-6.12-.77-1.68-1.54-3.36-2.33-5.03-1.06-2.24-2.15-4.46-3.23-6.69,0-.03-.07-.04-.17-.07-.15.15-.31.3-.46.47-1.7,1.96-2.85,4.21-3.42,6.74-.89,3.91-.8,7.84-.28,11.78.24,1.79.54,3.57.82,5.35.04.25.07.49.12.82h0Z"/>
    <path d="M62.66,98.23c-.65-1.33-1.23-2.56-1.84-3.78-1.85-3.7-3.71-7.4-5.55-11.09-.75-1.5-1.51-3-2.22-4.52-.32-.68-.56-1.4-.74-2.14-.24-.97-.07-1.92.6-2.68,1.18-1.34,2.41-2.65,3.64-3.95.21-.23.5-.41.78-.52.97-.38,1.81.3,1.68,1.33-.08.61-.37,1.11-.76,1.56-.24.29-.49.58-.71.88-.31.43-.42.92-.22,1.43.34.83.64,1.69,1.04,2.49,2.06,4.18,4.15,8.34,6.2,12.53,2.13,4.36,4.26,8.71,6.31,13.1,1.51,3.23,2.67,6.58,3.3,10.09.58,3.28.61,6.57-.22,9.82-.47,1.83-1.15,3.56-2.22,5.13-.18.26-.39.5-.62.71-.36.33-.79.5-1.27.29s-.58-.66-.56-1.1c.01-.35.08-.72.2-1.05,1.28-3.53,1.4-7.09.53-10.73-.75-3.16-1.79-6.21-3.11-9.17-.55-1.22-1.11-2.44-1.68-3.66-.08-.17-.18-.33-.3-.55-.21.13-.41.24-.59.37-2.39,1.54-4.95,2.71-7.76,3.26-2.08.4-4.19.5-6.3.43-3.99-.13-7.79-1.06-11.53-2.38-1.82-.65-3.62-1.38-5.35-2.24-.21-.1-.43-.17-.64-.26-.51-.21-.99-.12-1.45.16-.36.22-.7.47-1.06.68-.23.14-.47.27-.72.38-.45.2-.91.26-1.31-.08-.44-.37-.6-.86-.48-1.42.06-.3.2-.6.38-.86.24-.36.55-.7.84-1.02.81-.89,1.64-1.76,2.45-2.64.19-.2.38-.4.57-.58.52-.47,1.1-.61,1.75-.33.96.42,1.94.82,2.89,1.27,2.19,1.04,4.42,1.97,6.75,2.66,3.18.93,6.42,1.36,9.74,1.32,2.58-.04,5.02-.58,7.31-1.77.78-.41,1.52-.9,2.31-1.38h-.04Z"/>
    <path d="M32,118.21c.15.5.25.85.34,1.21,1.04,4.07.48,7.89-1.67,11.45-1.39,2.31-3.42,3.97-5.69,5.43-3.77,2.45-7.91,2.97-12.32,2.08-1.22-.25-2.42-.61-3.62-.95-.86-.24-.95-.23-1.47.47-.23.31-.45.64-.71.93-.36.41-.81.62-1.37.44-.6-.19-1.11-.5-1.15-1.17-.03-.42-.03-.89.13-1.27.83-2.03,1.7-4.05,2.58-6.07.37-.84.76-1.66,1.19-2.47.32-.59.91-.84,1.53-.72.6.12,1.03.58,1.12,1.28.04.31-.01.64-.07.95-.07.31-.21.61-.3.91-.2.64-.19.75.49.98,1.14.39,2.28.82,3.46,1.02,3.18.52,6.29.32,9.19-1.1,2.18-1.07,3.93-2.6,5.08-4.71.98-1.79,1.14-3.76.88-5.75-.18-1.34-.5-2.67-1.06-3.94-.31-.72-.81-1.22-1.5-1.6-2.61-1.42-5.21-2.87-7.8-4.32-.53-.3-1.05-.65-1.53-1.02-.84-.65-1.17-1.54-.78-2.47.89-2.13,1.85-4.24,2.86-6.31.41-.85,1.29-.98,2.11-.51.4.23.66.57.65,1.01-.02.45-.09.91-.23,1.33-.16.53-.4,1.02-.59,1.54-.15.43-.05.83.32,1.12.31.25.62.51.96.71,2.89,1.6,5.8,3.17,8.7,4.76,3.29,1.8,6.58,3.6,9.87,5.41,3.06,1.68,6.12,3.36,9.18,5.05.74.41,1.48.83,2.22,1.25.12.07.24.15.37.21.69.34.96.27,1.31-.39.37-.68.68-1.39,1.04-2.09.25-.5.6-.92,1.17-1.12.79-.28,1.51.06,1.67.88.08.42.1.9-.04,1.27-.9,2.25-1.87,4.47-2.82,6.7-.07.17-.17.32-.27.48-.64,1.02-1.57,1.35-2.7.83-.94-.43-1.84-.97-2.73-1.49-2.54-1.49-5.05-3.04-7.62-4.5-3.22-1.83-6.48-3.61-9.71-5.4-.16-.09-.33-.16-.65-.31v-.02Z"/>
    <path d="M87.22,68.34c-.09.1-.15.13-.18.18-1.44,2.47-3.66,3.98-6.27,4.96-2.46.93-5,1.08-7.6.87-3.25-.26-6.08-1.5-8.53-3.6-.87-.75-1.6-1.66-2.33-2.54-.54-.64-.53-.67-1.31-.41-.34.11-.69.18-1.03.27-.56.16-.94-.13-1.25-.53-.31-.4-.4-.86-.14-1.3.21-.35.49-.72.83-.92,2.24-1.43,4.5-2.83,6.77-4.23.26-.17.56-.29.86-.4.57-.22,1.18-.1,1.46.26.33.43.35,1.21-.01,1.65-.22.27-.51.49-.79.71-.23.18-.5.31-.73.5-.43.34-.48.58-.17,1.02.32.47.68.91,1.06,1.33,2.02,2.21,4.54,3.46,7.51,3.74,2.21.21,4.39-.06,6.46-.87.89-.35,1.71-.83,2.41-1.48.44-.41.76-.89.96-1.46.28-.78.2-1.47-.17-2.24-1.38-2.74-2.69-5.51-4-8.29-.25-.53-.44-1.09-.57-1.66-.21-.94.1-1.75.87-2.34.38-.3.79-.56,1.2-.82,1.02-.64,2.05-1.27,3.08-1.89.32-.2.66-.39,1-.55.54-.25,1.11-.11,1.49.32.38.44.49,1.08.16,1.52-.28.38-.65.71-1.03,1-.31.25-.69.42-1.02.64-.54.37-.64.63-.37,1.22.54,1.2,1.11,2.4,1.7,3.59,1.52,3.07,3.04,6.13,4.58,9.19,1.41,2.8,2.84,5.58,4.25,8.37.67,1.33,1.32,2.68,2,4,.26.51.52,1.01.82,1.49.31.51.69.63,1.25.44.42-.14.83-.32,1.21-.53.86-.46,1.69-.95,2.54-1.42.55-.31,1.13-.46,1.75-.2.61.25.86.81.54,1.38-.21.37-.51.75-.87.97-2.37,1.53-4.77,3.03-7.17,4.53-.3.19-.64.34-.98.43-.8.21-1.52,0-2.04-.66-.34-.43-.63-.9-.87-1.39-.98-2.04-1.92-4.11-2.91-6.15s-2.02-4.06-3.04-6.09c-.35-.7-.7-1.38-1.06-2.08-.09-.18-.2-.34-.32-.55h0Z"/>
  </g>
  <path d="M37.45,77.54c-.97-.57-1.72-1.02-2.48-1.46-5.41-3.11-10.19-7-14.48-11.54-3.75-3.97-6.97-8.32-9.68-13.04-2.68-4.64-4.95-9.51-6.39-14.68-1.26-4.53-2.46-9.1-3.26-13.73C.48,19.14.29,15.08.08,11.04c-.17-3.24-.01-6.5-.04-9.75C.04.37.51-.01,1.32,0c.86.01,1.2.51,1.19,1.39-.01,3.56-.07,7.11.07,10.66.19,4.96.68,9.9,1.84,14.74.82,3.39,1.53,6.84,2.65,10.13,1.17,3.44,2.69,6.77,4.23,10.07,2.06,4.42,4.78,8.45,7.86,12.22,3.3,4.06,7.02,7.71,11.23,10.84,2.87,2.14,5.88,4.05,9.43,5.72-.51-1.19-.91-2.14-1.33-3.08-1.37-3.07-2.75-6.14-4.13-9.22-.14-.3-.26-.62-.34-.94-.19-.75.06-1.39.78-1.62.7-.23,1.27.09,1.58.8.9,2.06,1.82,4.11,2.72,6.16,1.37,3.12,2.69,6.26,4.12,9.35.68,1.46.25,2.33-1.43,2.47-5.58.46-11.15,1.03-16.72,1.58-.85.08-1.42-.3-1.6-1.06-.19-.74.29-1.23,1-1.38.68-.14,1.38-.18,2.07-.24,3.54-.35,7.08-.69,10.89-1.06Z"/>
</svg>