<?xml version="1.0" encoding="UTF-8"?>
<svg id="_x32_" xmlns="http://www.w3.org/2000/svg" viewBox="0 0 161.29 245.87">
  <g id="_Чуча" data-name="Чуча">
    <path d="M54.39,206.97c.28.45.47.76.65,1.07,2.1,3.64,2.59,7.47,1.47,11.48-.72,2.6-2.23,4.74-4.01,6.76-2.97,3.37-6.81,4.99-11.31,5.33-1.24.09-2.5.07-3.75.06-.89,0-.98.04-1.28.85-.13.36-.26.73-.43,1.08-.23.49-.61.81-1.2.8-.63-.02-1.2-.19-1.42-.82-.14-.4-.27-.85-.22-1.26.25-2.18.55-4.36.85-6.54.13-.9.29-1.81.48-2.7.15-.66.65-1.05,1.28-1.1.61-.05,1.15.28,1.43.93.12.29.16.62.19.93.02.32-.04.64-.04.96-.02.67.02.77.73.81,1.2.06,2.42.17,3.6.05,3.2-.36,6.15-1.39,8.56-3.54,1.81-1.61,3.09-3.56,3.62-5.9.46-1.99.08-3.93-.71-5.77-.54-1.24-1.2-2.44-2.08-3.51-.5-.61-1.11-.95-1.88-1.14-2.9-.67-5.79-1.36-8.68-2.06-.59-.14-1.18-.34-1.74-.57-.99-.39-1.54-1.17-1.42-2.16.28-2.29.64-4.58,1.05-6.85.16-.93.98-1.29,1.89-1.06.45.11.79.37.9.8.11.43.15.9.14,1.34-.01.55-.11,1.09-.15,1.64-.03.46.17.81.61,1,.36.16.73.33,1.12.42,3.22.76,6.44,1.49,9.66,2.24,3.66.85,7.31,1.7,10.96,2.55,3.4.8,6.8,1.59,10.2,2.38.83.2,1.65.4,2.48.61.14.03.27.08.41.11.75.14.99,0,1.16-.72.17-.76.28-1.53.43-2.29.1-.55.33-1.05.82-1.39.69-.48,1.47-.35,1.85.4.19.38.34.84.3,1.24-.26,2.41-.6,4.81-.91,7.21-.03.18-.08.36-.13.54-.34,1.15-1.15,1.72-2.38,1.52-1.02-.16-2.03-.44-3.03-.7-2.85-.75-5.69-1.56-8.55-2.28-3.59-.9-7.21-1.73-10.81-2.59-.18-.04-.36-.07-.71-.12v-.02Z"/>
    <path d="M61.28,162.56c-1.25-.81-2.38-1.57-3.53-2.3-3.49-2.22-6.98-4.44-10.46-6.66-1.42-.9-2.84-1.8-4.23-2.74-.62-.42-1.2-.92-1.73-1.46-.7-.71-1.05-1.61-.86-2.6.32-1.76.7-3.51,1.09-5.26.07-.3.22-.61.4-.84.64-.82,1.71-.67,2.13.27.24.56.25,1.14.15,1.73-.06.37-.13.75-.16,1.12-.05.53.11,1.01.55,1.34.72.54,1.42,1.12,2.17,1.61,3.91,2.53,7.85,5.02,11.76,7.56,4.07,2.65,8.13,5.28,12.15,8,2.95,1.99,5.67,4.27,8.02,6.96,2.19,2.51,3.9,5.32,4.86,8.54.54,1.81.84,3.65.73,5.54-.02.31-.08.63-.17.92-.14.47-.42.84-.94.9s-.83-.27-1.05-.66c-.17-.31-.3-.66-.37-1-.72-3.68-2.45-6.8-5.06-9.48-2.27-2.32-4.72-4.41-7.38-6.27-1.1-.77-2.21-1.53-3.32-2.28-.15-.1-.32-.19-.54-.32-.12.22-.23.42-.32.62-1.26,2.55-2.85,4.87-4.99,6.79-1.58,1.41-3.33,2.58-5.18,3.61-3.49,1.94-7.23,3.1-11.11,3.88-1.9.38-3.81.67-5.74.83-.23.02-.46.08-.69.11-.55.08-.92.41-1.16.88-.19.37-.36.76-.56,1.13-.13.24-.27.47-.42.7-.28.4-.64.69-1.16.6-.56-.09-.96-.43-1.14-.97-.1-.29-.13-.62-.11-.93.02-.44.11-.88.2-1.31.24-1.18.5-2.35.75-3.52.06-.27.12-.53.19-.8.2-.67.63-1.09,1.33-1.18,1.04-.14,2.08-.29,3.13-.4,2.41-.23,4.81-.58,7.16-1.19,3.21-.84,6.21-2.13,9.04-3.87,2.19-1.35,4.01-3.08,5.36-5.28.46-.75.84-1.56,1.27-2.37l-.03.03Z"/>
    <path d="M76.65,125.79c-.07.12-.12.16-.13.22-.84,2.74-2.66,4.71-4.97,6.26-2.18,1.47-4.62,2.2-7.2,2.59-3.22.49-6.27-.06-9.12-1.55-1.02-.53-1.94-1.25-2.85-1.94-.67-.5-.67-.53-1.37-.1-.31.19-.63.33-.94.5-.51.28-.94.09-1.34-.23-.4-.32-.59-.75-.43-1.23.13-.39.31-.81.59-1.09,1.85-1.9,3.73-3.79,5.62-5.67.22-.22.48-.41.74-.59.51-.34,1.13-.37,1.48-.08.42.34.62,1.1.37,1.61-.15.32-.39.59-.61.88-.19.23-.42.42-.59.65-.33.43-.34.68.06,1.04.42.38.87.72,1.34,1.05,2.47,1.69,5.21,2.33,8.17,1.92,2.2-.3,4.26-1.06,6.09-2.33.79-.54,1.47-1.2,2.01-2,.33-.5.54-1.04.6-1.64.09-.82-.14-1.48-.68-2.14-1.97-2.35-3.88-4.75-5.79-7.15-.37-.46-.68-.96-.93-1.49-.42-.87-.3-1.73.31-2.48.3-.38.64-.73.98-1.07.85-.85,1.7-1.7,2.56-2.54.27-.26.55-.53.85-.76.47-.37,1.05-.37,1.52-.03.47.34.72.94.5,1.44-.18.44-.47.84-.77,1.21-.24.31-.57.57-.85.85-.45.48-.48.76-.08,1.27.81,1.04,1.64,2.08,2.47,3.11,2.19,2.64,4.37,5.27,6.57,7.9,2.01,2.4,4.04,4.78,6.05,7.18.96,1.15,1.9,2.3,2.86,3.44.37.44.73.86,1.14,1.26.42.42.81.46,1.32.14.37-.23.73-.5,1.06-.79.73-.64,1.43-1.31,2.15-1.97.47-.43,1-.71,1.66-.6.65.11,1.02.59.85,1.22-.12.41-.33.85-.62,1.14-1.96,2.03-3.95,4.05-5.94,6.05-.25.25-.54.47-.85.64-.74.39-1.48.34-2.14-.18-.43-.34-.82-.73-1.16-1.15-1.43-1.76-2.81-3.56-4.25-5.32s-2.89-3.49-4.35-5.24c-.5-.6-1-1.18-1.51-1.78-.13-.15-.28-.29-.44-.46h0Z"/>
    <path d="M127.3,93.46c-.2.14-.34.23-.47.34-2.85,2.42-5.69,4.84-8.54,7.26-.53.45-1.07.89-1.61,1.33-.33.26-.47.54-.3.98.28.73.51,1.46.73,2.21.52,1.83,1.03,3.68,1.54,5.52.92,3.34,1.29,6.76,1.54,10.21.03.38.1.75.12,1.13.03.49.05.99-.09,1.45-.19.59-.78.97-1.4.99-1.12.03-1.69-.37-1.8-1.37-.15-1.4-.27-2.8-.4-4.2-.33-3.66-1.12-7.22-2.22-10.71-.19-.58-.34-1.17-.52-1.75-.11-.36-.25-.71-.41-1.14-.54.57-1.03,1.06-1.49,1.58-2.69,2.95-4.96,6.2-6.84,9.73-.73,1.37-1.36,2.81-1.75,4.31-.31,1.22-.48,2.47-.34,3.75.11,1.03.55,2.01,1.26,2.76.32.34.69.6,1.19.42.51-.19.73-.63.77-1.14.02-.29-.02-.59-.05-.88-.07-.55-.02-1.07.49-1.41.54-.36,1.12-.4,1.68-.08.91.54,1.56,1.32,1.97,2.3.45,1.09.35,2.2.1,3.31-.19.82-.45,1.63-.8,2.4-1.89,4.2-4.99,7.04-8.45,9.46-1.88,1.32-3.75,2.65-5.68,3.91-1.59,1.03-3.24,1.98-4.89,2.92-5.62,3.01-8.94,6.8-10.18,13.37-.31.92-.64,2.49-1.56,2.48-1.6-1.28-.71-4.66-.37-6.49,1.2-6.31,6.9-9.86,11.86-13.05,3.88-2.14,7.66-4.45,11.24-7.07,2.21-1.61,4.16-3.52,5.56-5.9.53-.89.98-1.82,1.12-2.86.02-.13.03-.25.04-.38,0-.04-.03-.08-.06-.16-.18.27-.35.53-.54.78-1.95,2.63-5.09,2.32-6.91.58-1.58-1.52-2.09-3.46-2.03-5.57.06-2.09.67-4.07,1.49-5.97,1.46-3.38,3.39-6.48,5.72-9.35,1.81-2.23,3.73-4.35,5.77-6.37.3-.3.36-.53.22-.93-1.02-3-2.09-5.99-2.99-9.03-.92-3.13-1.5-6.34-1.38-9.63.1-2.83.5-5.62,1.67-8.24.82-1.82,1.88-3.48,3.21-4.97.99-1.1,2-2.17,3.21-3.03.22-.16.46-.31.71-.42.62-.27,1.23-.1,1.64.43.32.42.31,1-.08,1.52-.2.27-.45.5-.69.74-.21.21-.45.4-.65.62-.23.25-.21.65,0,.92.91,1.15,1.84,2.28,2.74,3.45,1.84,2.4,3.67,4.81,5.51,7.22,1.24,1.62,2.48,3.23,3.72,4.85,1.43,1.87,2.85,3.74,4.29,5.61,1.42,1.83,2.84,3.65,4.26,5.47.36.46.69.95,1.08,1.38.58.65,1.57.78,2.32.33.9-.54,1.58-1.33,2.21-2.15,1.05-1.36,1.97-2.79,2.48-4.45.45-1.47.66-2.96.24-4.48-.23-.83-.56-1.6-1.42-1.97-.3-.13-.65-.2-.97-.2-.48,0-.85.22-1.04.69-.06.15-.16.3-.24.45-.47.87-1.65.71-2.1.16-.54-.67-.58-1.72,0-2.52.96-1.32,2.32-1.85,3.91-1.8,1.21.05,2.25.55,3.11,1.37.98.94,1.64,2.07,1.85,3.43.46,2.84-.02,5.51-1.36,8.07-1.6,3.07-3.88,5.54-6.53,7.72-.47.39-.97.74-1.46,1.11-1.09.8-2.05.61-3.05-.2-.24-.2-.44-.45-.63-.7-2.41-3.03-4.81-6.05-7.21-9.08-.34-.43-.67-.86-1.05-1.35h-.01ZM114.38,97.67c.26-.19.46-.33.65-.49,1.18-.98,2.35-1.99,3.54-2.97,1.9-1.57,3.82-3.14,5.72-4.71.61-.51.61-.62.18-1.25-.03-.06-.06-.11-.11-.16-1.36-1.79-2.71-3.59-4.06-5.38-1.11-1.48-2.21-2.96-3.34-4.43-1.51-1.96-3.04-3.91-4.57-5.86-.02-.03-.08-.02-.18-.04-.11.17-.24.36-.35.56-1.25,2.28-1.89,4.71-1.92,7.31-.04,4.01.87,7.83,2.21,11.57.61,1.7,1.28,3.37,1.93,5.06.09.23.17.46.29.78h0Z"/>
  </g>
  <g id="_Стрелка" data-name="Стрелка">
    <path d="M27.28,13.86c-4.06,6.3-6.25,13.6-6.18,21.1.07,7.09,2.01,14.02,4.87,20.46s6.63,12.41,10.85,18.01c3.66,4.86,7.66,9.45,11.88,13.82,2.52,2.61,5.16,5.09,7.75,7.62.14.14.28.28.42.42.89.92,2.3-.49,1.4-1.4-2.21-2.27-4.57-4.39-6.8-6.64-4.02-4.07-7.85-8.33-11.4-12.82-4.21-5.34-8.02-11.04-11.04-17.13s-5.3-12.75-5.84-19.58.86-14.12,4.28-20.35c.47-.86.98-1.7,1.51-2.52.69-1.08-1.02-2.07-1.71-1h0Z"/>
    <path d="M58.61,94.46c.06-5.04.39-10.07.98-15.08.06-.53-.5-.99-.99-.99-.59,0-.93.46-.99.99-.59,5.01-.92,10.04-.98,15.08-.01,1.28,1.97,1.28,1.98,0h0Z"/>
    <path d="M57.54,93.65c-5.05-.92-10.14-1.57-15.26-1.95-1.27-.09-1.27,1.89,0,1.98,4.94.36,9.85.99,14.73,1.88,1.25.23,1.78-1.68.53-1.91h0Z"/>
  </g>
</svg>