<?xml version="1.0" encoding="UTF-8"?>
<svg id="_Наши_новости" data-name="Наши_новости" xmlns="http://www.w3.org/2000/svg" xmlns:xlink="http://www.w3.org/1999/xlink" viewBox="88 28 260 98">
  <defs>
    <style>
      .cls-1 {
        fill: url(#_Новый_образец_градиентной_залив-6);
      }

      .cls-2 {
        fill: url(#_Новый_образец_градиентной_зал_4-24);
      }

      .cls-3 {
        fill: url(#_Новый_образец_градиентной_залив-17);
      }

      .cls-4 {
        fill: url(#_Новый_образец_градиентной_залив-10);
      }

      .cls-5 {
        fill: url(#_Новый_образец_градиентной_зал_4-38);
      }

      .cls-6 {
        fill: url(#_Новый_образец_градиентной_залив-12);
      }

      .cls-7 {
        fill: url(#_Новый_образец_градиентной_зал_4-22);
      }

      .cls-8 {
        fill: url(#_Новый_образец_градиентной_зал_4-30);
      }

      .cls-9 {
        fill: url(#_Новый_образец_градиентной_залив-8);
      }

      .cls-10 {
        fill: url(#_Новый_образец_градиентной_залив-14);
      }

      .cls-11 {
        fill: url(#_Новый_образец_градиентной_зал_4-20);
      }

      .cls-12 {
        fill: url(#_Новый_образец_градиентной_зал_4-33);
      }

      .cls-13 {
        fill: url(#_Новый_образец_градиентной_залив-7);
      }

      .cls-14 {
        fill: url(#_Новый_образец_градиентной_зал_4-34);
      }

      .cls-15 {
        fill: url(#_Новый_образец_градиентной_залив-13);
      }

      .cls-16 {
        fill: url(#_Новый_образец_градиентной_зал_4-9);
      }

      .cls-17 {
        fill: url(#_Новый_образец_градиентной_зал_4);
      }

      .cls-18 {
        fill: url(#_Новый_образец_градиентной_зал_4-17);
      }

      .cls-19 {
        fill: url(#_Новый_образец_градиентной_залив-20);
      }

      .cls-20 {
        fill: url(#_Новый_образец_градиентной_зал_4-3);
      }

      .cls-21 {
        fill: none;
      }

      .cls-22 {
        fill: url(#_Новый_образец_градиентной_зал_4-25);
      }

      .cls-23 {
        fill: url(#_Новый_образец_градиентной_зал_4-4);
      }

      .cls-24 {
        fill: url(#_Новый_образец_градиентной_зал_4-44);
      }

      .cls-25 {
        fill: url(#_Новый_образец_градиентной_зал_4-15);
      }

      .cls-26 {
        fill: url(#_Новый_образец_градиентной_залив-9);
      }

      .cls-27 {
        fill: url(#_Новый_образец_градиентной_зал_4-26);
      }

      .cls-28 {
        fill: url(#_Новый_образец_градиентной_зал_4-11);
      }

      .cls-29 {
        fill: url(#_Новый_образец_градиентной_залив-19);
      }

      .cls-30 {
        fill: url(#_Новый_образец_градиентной_зал_4-10);
      }

      .cls-31 {
        fill: url(#_Новый_образец_градиентной_зал_4-28);
      }

      .cls-32 {
        fill: url(#_Новый_образец_градиентной_зал_4-7);
      }

      .cls-33 {
        fill: url(#_Новый_образец_градиентной_залив-18);
      }

      .cls-34 {
        fill: url(#_Новый_образец_градиентной_зал_4-42);
      }

      .cls-35 {
        fill: url(#_Новый_образец_градиентной_зал_4-14);
      }

      .cls-36 {
        fill: url(#_Новый_образец_градиентной_зал_4-41);
      }

      .cls-37 {
        fill: url(#_Новый_образец_градиентной_зал_4-23);
      }

      .cls-38 {
        fill: url(#_Новый_образец_градиентной_зал_4-35);
      }

      .cls-39 {
        fill: url(#_Новый_образец_градиентной_зал_4-8);
      }

      .cls-40 {
        fill: url(#_Новый_образец_градиентной_зал_4-31);
      }

      .cls-41 {
        fill: url(#_Новый_образец_градиентной_залив-4);
      }

      .cls-42 {
        fill: url(#_Новый_образец_градиентной_зал_4-36);
      }

      .cls-43 {
        fill: url(#_Новый_образец_градиентной_зал_4-19);
      }

      .cls-44 {
        fill: url(#_Новый_образец_градиентной_зал_4-2);
      }

      .cls-45 {
        fill: url(#_Новый_образец_градиентной_зал_4-39);
      }

      .cls-46 {
        fill: url(#_Новый_образец_градиентной_зал_4-43);
      }

      .cls-47 {
        fill: url(#_Новый_образец_градиентной_залив-16);
      }

      .cls-48 {
        fill: url(#_Новый_образец_градиентной_зал_4-18);
      }

      .cls-49 {
        fill: url(#_Новый_образец_градиентной_залив-5);
      }

      .cls-50 {
        fill: url(#_Новый_образец_градиентной_зал_4-16);
      }

      .cls-51 {
        fill: url(#_Новый_образец_градиентной_зал_4-32);
      }

      .cls-52 {
        fill: url(#_Новый_образец_градиентной_зал_4-27);
      }

      .cls-53 {
        fill: url(#_Новый_образец_градиентной_залив-11);
      }

      .cls-54 {
        fill: url(#_Новый_образец_градиентной_зал_4-37);
      }

      .cls-55 {
        fill: url(#_Новый_образец_градиентной_залив-21);
      }

      .cls-56 {
        fill: url(#_Новый_образец_градиентной_зал_4-12);
      }

      .cls-57 {
        fill: url(#_Новый_образец_градиентной_зал_4-29);
      }

      .cls-58 {
        fill: url(#_Новый_образец_градиентной_зал_4-40);
      }

      .cls-59 {
        fill: url(#_Новый_образец_градиентной_зал_4-6);
      }

      .cls-60 {
        fill: url(#_Новый_образец_градиентной_залив-15);
      }

      .cls-61 {
        fill: url(#_Новый_образец_градиентной_залив-3);
      }

      .cls-62 {
        fill: url(#_Новый_образец_градиентной_зал_4-5);
      }

      .cls-63 {
        fill: url(#_Новый_образец_градиентной_залив);
      }

      .cls-64 {
        fill: url(#_Новый_образец_градиентной_зал_4-21);
      }

      .cls-65 {
        fill: url(#_Новый_образец_градиентной_залив-2);
      }

      .cls-66 {
        fill: url(#_Новый_образец_градиентной_зал_4-13);
      }

      .cls-67 {
        fill: url(#_Новый_образец_градиентной_залив-22);
      }
    </style>
    <linearGradient id="_Новый_образец_градиентной_зал_4" data-name="Новый образец градиентной зал 4" x1="86.45" y1="103.92" x2="416.73" y2="103.92" gradientUnits="userSpaceOnUse">
      <stop offset="0" stop-color="#196f88"/>
      <stop offset=".28" stop-color="#216c9b"/>
      <stop offset=".41" stop-color="#226496"/>
      <stop offset=".61" stop-color="#27508a"/>
      <stop offset=".67" stop-color="#2a4886"/>
      <stop offset=".71" stop-color="#28427e"/>
      <stop offset="1" stop-color="#1d2053"/>
    </linearGradient>
    <linearGradient id="_Новый_образец_градиентной_зал_4-2" data-name="Новый образец градиентной зал 4" x1="94.56" x2="340.94" xlink:href="#_Новый_образец_градиентной_зал_4"/>
    <linearGradient id="_Новый_образец_градиентной_зал_4-3" data-name="Новый образец градиентной зал 4" x1="94.36" x2="343.91" xlink:href="#_Новый_образец_градиентной_зал_4"/>
    <linearGradient id="_Новый_образец_градиентной_зал_4-4" data-name="Новый образец градиентной зал 4" x1="94.56" x2="340.94" xlink:href="#_Новый_образец_градиентной_зал_4"/>
    <linearGradient id="_Новый_образец_градиентной_зал_4-5" data-name="Новый образец градиентной зал 4" x1="89.53" y1="112.59" x2="342.2" y2="112.59" xlink:href="#_Новый_образец_градиентной_зал_4"/>
    <linearGradient id="_Новый_образец_градиентной_зал_4-6" data-name="Новый образец градиентной зал 4" x1="94.56" y1="112.59" x2="340.94" y2="112.59" xlink:href="#_Новый_образец_градиентной_зал_4"/>
    <linearGradient id="_Новый_образец_градиентной_зал_4-7" data-name="Новый образец градиентной зал 4" x1="93.87" y1="107.56" x2="346.46" y2="107.56" xlink:href="#_Новый_образец_градиентной_зал_4"/>
    <linearGradient id="_Новый_образец_градиентной_зал_4-8" data-name="Новый образец градиентной зал 4" x1="94.56" y1="107.58" x2="340.94" y2="107.58" xlink:href="#_Новый_образец_градиентной_зал_4"/>
    <linearGradient id="_Новый_образец_градиентной_зал_4-9" data-name="Новый образец градиентной зал 4" x1="92.15" x2="415.94" xlink:href="#_Новый_образец_градиентной_зал_4"/>
    <linearGradient id="_Новый_образец_градиентной_зал_4-10" data-name="Новый образец градиентной зал 4" x1="94.56" x2="340.94" xlink:href="#_Новый_образец_градиентной_зал_4"/>
    <linearGradient id="_Новый_образец_градиентной_зал_4-11" data-name="Новый образец градиентной зал 4" x1="93.11" y1="107.46" x2="341.04" y2="107.46" xlink:href="#_Новый_образец_градиентной_зал_4"/>
    <linearGradient id="_Новый_образец_градиентной_зал_4-12" data-name="Новый образец градиентной зал 4" x1="94.56" y1="107.49" x2="340.94" y2="107.49" xlink:href="#_Новый_образец_градиентной_зал_4"/>
    <linearGradient id="_Новый_образец_градиентной_зал_4-13" data-name="Новый образец градиентной зал 4" x1="94.46" y1="110.52" x2="347.02" y2="110.52" xlink:href="#_Новый_образец_градиентной_зал_4"/>
    <linearGradient id="_Новый_образец_градиентной_зал_4-14" data-name="Новый образец градиентной зал 4" x1="94.56" y1="110.53" x2="340.94" y2="110.53" xlink:href="#_Новый_образец_градиентной_зал_4"/>
    <linearGradient id="_Новый_образец_градиентной_зал_4-15" data-name="Новый образец градиентной зал 4" x1="93.88" y1="106.63" x2="341.58" y2="106.63" xlink:href="#_Новый_образец_градиентной_зал_4"/>
    <linearGradient id="_Новый_образец_градиентной_зал_4-16" data-name="Новый образец градиентной зал 4" x1="94.56" y1="106.62" x2="340.94" y2="106.62" xlink:href="#_Новый_образец_градиентной_зал_4"/>
    <linearGradient id="_Новый_образец_градиентной_зал_4-17" data-name="Новый образец градиентной зал 4" x1="93.39" y1="109.7" x2="341.56" y2="109.7" xlink:href="#_Новый_образец_градиентной_зал_4"/>
    <linearGradient id="_Новый_образец_градиентной_зал_4-18" data-name="Новый образец градиентной зал 4" x1="94.56" y1="109.71" x2="340.94" y2="109.71" xlink:href="#_Новый_образец_градиентной_зал_4"/>
    <linearGradient id="_Новый_образец_градиентной_зал_4-19" data-name="Новый образец градиентной зал 4" x1="93.95" y1="104.19" x2="341.97" y2="104.19" xlink:href="#_Новый_образец_градиентной_зал_4"/>
    <linearGradient id="_Новый_образец_градиентной_зал_4-20" data-name="Новый образец градиентной зал 4" x1="94.56" y1="104.19" x2="340.94" y2="104.19" xlink:href="#_Новый_образец_градиентной_зал_4"/>
    <linearGradient id="_Новый_образец_градиентной_зал_4-21" data-name="Новый образец градиентной зал 4" x1="94.27" y1="104.81" x2="341.97" y2="104.81" xlink:href="#_Новый_образец_градиентной_зал_4"/>
    <linearGradient id="_Новый_образец_градиентной_зал_4-22" data-name="Новый образец градиентной зал 4" x1="94.56" y1="104.82" x2="340.94" y2="104.82" xlink:href="#_Новый_образец_градиентной_зал_4"/>
    <linearGradient id="_Новый_образец_градиентной_зал_4-23" data-name="Новый образец градиентной зал 4" x1="89.43" y1="93.54" x2="341.04" y2="93.54" xlink:href="#_Новый_образец_градиентной_зал_4"/>
    <linearGradient id="_Новый_образец_градиентной_зал_4-24" data-name="Новый образец градиентной зал 4" x1="94.56" y1="93.5" x2="340.94" y2="93.5" xlink:href="#_Новый_образец_градиентной_зал_4"/>
    <radialGradient id="_Новый_образец_градиентной_залив" data-name="Новый образец градиентной залив" cx="113.65" cy="64.85" fx="113.65" fy="64.85" r="289.32" gradientUnits="userSpaceOnUse">
      <stop offset="0" stop-color="#31cdbf"/>
      <stop offset=".16" stop-color="#30c7bc"/>
      <stop offset=".35" stop-color="#2fb9b4"/>
      <stop offset=".56" stop-color="#2da0a7"/>
      <stop offset=".78" stop-color="#2b7e94"/>
      <stop offset="1" stop-color="#28557e"/>
    </radialGradient>
    <radialGradient id="_Новый_образец_градиентной_залив-2" data-name="Новый образец градиентной залив" cx="118.28" cy="65.43" fx="118.28" fy="65.43" r="283.3" xlink:href="#_Новый_образец_градиентной_залив"/>
    <linearGradient id="_Новый_образец_градиентной_зал_4-25" data-name="Новый образец градиентной зал 4" x1="94.46" y1="94.47" x2="347.02" y2="94.47" xlink:href="#_Новый_образец_градиентной_зал_4"/>
    <linearGradient id="_Новый_образец_градиентной_зал_4-26" data-name="Новый образец градиентной зал 4" x1="94.56" y1="94.46" x2="340.94" y2="94.46" xlink:href="#_Новый_образец_градиентной_зал_4"/>
    <radialGradient id="_Новый_образец_градиентной_залив-3" data-name="Новый образец градиентной залив" cx="118.77" cy="64.99" fx="118.77" fy="64.99" r="288.13" xlink:href="#_Новый_образец_градиентной_залив"/>
    <radialGradient id="_Новый_образец_градиентной_залив-4" data-name="Новый образец градиентной залив" cx="118.28" cy="65.43" fx="118.28" fy="65.43" r="283.3" xlink:href="#_Новый_образец_градиентной_залив"/>
    <linearGradient id="_Новый_образец_градиентной_зал_4-27" data-name="Новый образец градиентной зал 4" x1="58.57" y1="92.5" x2="350.74" y2="92.5" xlink:href="#_Новый_образец_градиентной_зал_4"/>
    <linearGradient id="_Новый_образец_градиентной_зал_4-28" data-name="Новый образец градиентной зал 4" x1="94.56" y1="92.58" x2="340.94" y2="92.58" xlink:href="#_Новый_образец_градиентной_зал_4"/>
    <radialGradient id="_Новый_образец_градиентной_залив-5" data-name="Новый образец градиентной залив" cx="86.7" cy="60.3" fx="86.7" fy="60.3" r="335.95" xlink:href="#_Новый_образец_градиентной_залив"/>
    <radialGradient id="_Новый_образец_градиентной_залив-6" data-name="Новый образец градиентной залив" cx="118.28" cy="65.43" fx="118.28" fy="65.43" r="283.3" xlink:href="#_Новый_образец_градиентной_залив"/>
    <linearGradient id="_Новый_образец_градиентной_зал_4-29" data-name="Новый образец градиентной зал 4" x1="56.78" y1="92.5" x2="349.6" y2="92.5" xlink:href="#_Новый_образец_градиентной_зал_4"/>
    <linearGradient id="_Новый_образец_градиентной_зал_4-30" data-name="Новый образец градиентной зал 4" x1="94.56" y1="92.58" x2="340.94" y2="92.58" xlink:href="#_Новый_образец_градиентной_зал_4"/>
    <radialGradient id="_Новый_образец_градиентной_залив-7" data-name="Новый образец градиентной залив" cx="84.97" cy="60.23" fx="84.97" fy="60.23" r="336.7" xlink:href="#_Новый_образец_градиентной_залив"/>
    <radialGradient id="_Новый_образец_градиентной_залив-8" data-name="Новый образец градиентной залив" cx="118.28" cy="65.43" fx="118.28" fy="65.43" r="283.3" xlink:href="#_Новый_образец_градиентной_залив"/>
    <linearGradient id="_Новый_образец_градиентной_зал_4-31" data-name="Новый образец градиентной зал 4" x1="93.23" y1="95.67" x2="341.27" y2="95.67" xlink:href="#_Новый_образец_градиентной_зал_4"/>
    <linearGradient id="_Новый_образец_градиентной_зал_4-32" data-name="Новый образец градиентной зал 4" x1="94.56" y1="95.67" x2="340.94" y2="95.67" xlink:href="#_Новый_образец_градиентной_зал_4"/>
    <radialGradient id="_Новый_образец_градиентной_залив-9" data-name="Новый образец градиентной залив" cx="117.11" cy="65.07" fx="117.11" fy="65.07" r="285.27" xlink:href="#_Новый_образец_градиентной_залив"/>
    <radialGradient id="_Новый_образец_градиентной_залив-10" data-name="Новый образец градиентной залив" cx="118.28" cy="65.43" fx="118.28" fy="65.43" r="283.3" xlink:href="#_Новый_образец_градиентной_залив"/>
    <linearGradient id="_Новый_образец_градиентной_зал_4-33" data-name="Новый образец градиентной зал 4" x1="88.98" y1="95.26" x2="341.65" y2="95.26" xlink:href="#_Новый_образец_градиентной_зал_4"/>
    <linearGradient id="_Новый_образец_градиентной_зал_4-34" data-name="Новый образец градиентной зал 4" x1="94.56" y1="95.26" x2="340.94" y2="95.26" xlink:href="#_Новый_образец_градиентной_зал_4"/>
    <radialGradient id="_Новый_образец_градиентной_залив-11" data-name="Новый образец градиентной залив" cx="113.3" cy="65.04" fx="113.3" fy="65.04" r="290.41" xlink:href="#_Новый_образец_градиентной_залив"/>
    <radialGradient id="_Новый_образец_градиентной_залив-12" data-name="Новый образец градиентной залив" cx="118.28" cy="65.43" fx="118.28" fy="65.43" r="283.3" xlink:href="#_Новый_образец_градиентной_залив"/>
    <linearGradient id="_Новый_образец_градиентной_зал_4-35" data-name="Новый образец градиентной зал 4" x1="94.21" y1="88.17" x2="341.58" y2="88.17" xlink:href="#_Новый_образец_градиентной_зал_4"/>
    <linearGradient id="_Новый_образец_градиентной_зал_4-36" data-name="Новый образец градиентной зал 4" x1="94.56" y1="88.17" x2="340.94" y2="88.17" xlink:href="#_Новый_образец_градиентной_зал_4"/>
    <radialGradient id="_Новый_образец_градиентной_залив-13" data-name="Новый образец градиентной залив" cx="118.02" cy="63.42" fx="118.02" fy="63.42" r="286.55" xlink:href="#_Новый_образец_градиентной_залив"/>
    <radialGradient id="_Новый_образец_градиентной_залив-14" data-name="Новый образец градиентной залив" cx="118.28" cy="65.43" fx="118.28" fy="65.43" r="283.3" xlink:href="#_Новый_образец_градиентной_залив"/>
    <linearGradient id="_Новый_образец_градиентной_зал_4-37" data-name="Новый образец градиентной зал 4" x1="93.87" y1="91.4" x2="346.46" y2="91.4" xlink:href="#_Новый_образец_градиентной_зал_4"/>
    <linearGradient id="_Новый_образец_градиентной_зал_4-38" data-name="Новый образец градиентной зал 4" x1="94.56" y1="91.39" x2="340.94" y2="91.39" xlink:href="#_Новый_образец_градиентной_зал_4"/>
    <radialGradient id="_Новый_образец_градиентной_залив-15" data-name="Новый образец градиентной залив" cx="118.18" cy="64.76" fx="118.18" fy="64.76" r="290.72" xlink:href="#_Новый_образец_градиентной_залив"/>
    <radialGradient id="_Новый_образец_градиентной_залив-16" data-name="Новый образец градиентной залив" cx="118.28" cy="65.43" fx="118.28" fy="65.43" r="283.3" xlink:href="#_Новый_образец_градиентной_залив"/>
    <linearGradient id="_Новый_образец_градиентной_зал_4-39" data-name="Новый образец градиентной зал 4" x1="92.87" y1="89.14" x2="347.63" y2="89.14" xlink:href="#_Новый_образец_градиентной_зал_4"/>
    <linearGradient id="_Новый_образец_градиентной_зал_4-40" data-name="Новый образец градиентной зал 4" x1="94.56" y1="89.1" x2="340.94" y2="89.1" xlink:href="#_Новый_образец_градиентной_зал_4"/>
    <radialGradient id="_Новый_образец_градиентной_залив-17" data-name="Новый образец градиентной залив" cx="117.39" cy="64.24" fx="117.39" fy="64.24" r="294.57" xlink:href="#_Новый_образец_градиентной_залив"/>
    <radialGradient id="_Новый_образец_градиентной_залив-18" data-name="Новый образец градиентной залив" cx="118.28" cy="65.43" fx="118.28" fy="65.43" r="283.3" xlink:href="#_Новый_образец_градиентной_залив"/>
    <linearGradient id="_Новый_образец_градиентной_зал_4-41" data-name="Новый образец градиентной зал 4" x1="93.12" y1="92.66" x2="341.66" y2="92.66" xlink:href="#_Новый_образец_градиентной_зал_4"/>
    <linearGradient id="_Новый_образец_градиентной_зал_4-42" data-name="Новый образец градиентной зал 4" x1="94.56" y1="92.66" x2="340.94" y2="92.66" xlink:href="#_Новый_образец_градиентной_зал_4"/>
    <radialGradient id="_Новый_образец_градиентной_залив-19" data-name="Новый образец градиентной залив" cx="117.04" cy="64.97" fx="117.04" fy="64.97" r="285.88" xlink:href="#_Новый_образец_градиентной_залив"/>
    <radialGradient id="_Новый_образец_градиентной_залив-20" data-name="Новый образец градиентной залив" cx="118.28" cy="65.43" fx="118.28" fy="65.43" r="283.3" xlink:href="#_Новый_образец_градиентной_залив"/>
    <linearGradient id="_Новый_образец_градиентной_зал_4-43" data-name="Новый образец градиентной зал 4" x1="92.88" y1="91.6" x2="342.41" y2="91.6" xlink:href="#_Новый_образец_градиентной_зал_4"/>
    <linearGradient id="_Новый_образец_градиентной_зал_4-44" data-name="Новый образец градиентной зал 4" x1="94.56" y1="91.59" x2="340.94" y2="91.59" xlink:href="#_Новый_образец_градиентной_зал_4"/>
    <radialGradient id="_Новый_образец_градиентной_залив-21" data-name="Новый образец градиентной залив" cx="116.9" cy="64.85" fx="116.9" fy="64.85" r="287.09" xlink:href="#_Новый_образец_градиентной_залив"/>
    <radialGradient id="_Новый_образец_градиентной_залив-22" data-name="Новый образец градиентной залив" cx="118.28" cy="65.43" fx="118.28" fy="65.43" r="283.3" xlink:href="#_Новый_образец_градиентной_залив"/>
  </defs>
  <g id="_Наши" data-name="Наши">
    <path d="M94.56,66.34v-34.3h7.99v34.3h-7.99ZM101.91,52.28v-6.71h16.76v6.71h-16.76ZM118.08,66.34v-34.3h7.94v34.3h-7.94Z"/>
    <path d="M128.42,66.34l15.24-34.3h7.84l15.39,34.3h-8.33l-12.59-30.28h3.19l-12.59,30.28h-8.13ZM136.11,58.99l2.01-6.03h17.74l2.06,6.03h-21.8Z"/>
    <path d="M169.24,66.34v-34.3h7.84v29.69l-1.76-1.86h14.41l-1.76,1.86v-29.69h7.89v29.69l-1.86-1.86h14.5l-1.86,1.86v-29.69h7.84v34.3h-45.23Z"/>
    <path d="M220.78,66.34v-34.3h7.84v22.39l16.42-22.39h7.45v34.3h-7.84v-22.29l-16.37,22.29h-7.5Z"/>
  </g>
  <g>
    <path class="cls-21" d="M148.71,115.32c-1.54,0-2.99-.27-4.3-.82-1.31-.54-2.47-1.32-3.44-2.33-.97-1-1.73-2.18-2.27-3.51-.54-1.33-.82-2.83-.82-4.47s.27-3.14.82-4.47,1.31-2.51,2.27-3.51c.97-1,2.13-1.78,3.44-2.33,1.31-.54,2.76-.82,4.3-.82s2.98.27,4.28.82c1.3.54,2.45,1.32,3.44,2.33.99,1,1.76,2.18,2.3,3.51.54,1.33.82,2.83.82,4.47s-.27,3.14-.82,4.47-1.31,2.51-2.3,3.51c-.98,1-2.14,1.78-3.44,2.32-1.3.54-2.74.82-4.28.82Z"/>
    <path class="cls-21" d="M141.04,112.1c.96,1,2.1,1.76,3.41,2.3,1.31.54,2.73.81,4.26.81s2.95-.27,4.24-.81c1.29-.54,2.43-1.31,3.41-2.3.98-1,1.74-2.16,2.28-3.48.54-1.32.81-2.8.81-4.43s-.27-3.11-.81-4.43c-.54-1.32-1.3-2.48-2.28-3.48-.98-1-2.12-1.76-3.41-2.3-1.29-.54-2.7-.81-4.24-.81s-2.96.27-4.26.81c-1.31.54-2.44,1.31-3.41,2.3-.96,1-1.71,2.16-2.25,3.48-.54,1.32-.81,2.8-.81,4.43s.27,3.11.81,4.43c.54,1.32,1.29,2.48,2.25,3.48Z"/>
    <path class="cls-21" d="M179.08,101.35v-8.53h7.55c1.71,0,3.04.36,3.96,1.07.92.72,1.39,1.79,1.39,3.19s-.47,2.43-1.39,3.17c-.91.73-2.24,1.1-3.96,1.1h-7.55Z"/>
    <path class="cls-21" d="M179.18,92.92v8.33h7.45c1.7,0,3-.36,3.9-1.08.9-.72,1.35-1.75,1.35-3.09s-.45-2.41-1.35-3.11c-.9-.7-2.2-1.05-3.9-1.05h-7.45Z"/>
    <path class="cls-21" d="M221.96,115.32c-1.54,0-2.99-.27-4.3-.82-1.31-.54-2.47-1.32-3.44-2.33-.97-1-1.73-2.18-2.27-3.51-.54-1.33-.82-2.83-.82-4.47s.27-3.14.82-4.47,1.31-2.51,2.27-3.51c.97-1,2.13-1.78,3.44-2.33.74-.3,1.56-.53,2.44-.66l7.41,1.32c.83.48,1.55,1.04,2.16,1.67.99,1,1.76,2.18,2.3,3.51.54,1.33.82,2.83.82,4.47s-.27,3.14-.82,4.47-1.31,2.51-2.3,3.51c-.98,1-2.14,1.78-3.44,2.32-1.3.54-2.74.82-4.28.82Z"/>
    <path class="cls-21" d="M214.29,96.28c-.96,1-1.71,2.16-2.25,3.48-.54,1.32-.81,2.8-.81,4.43s.27,3.11.81,4.43c.54,1.32,1.29,2.48,2.25,3.48.96,1,2.1,1.76,3.41,2.3,1.31.54,2.73.81,4.26.81s2.95-.27,4.24-.81c1.29-.54,2.43-1.31,3.41-2.3.98-1,1.74-2.16,2.28-3.48.54-1.32.81-2.8.81-4.43s-.27-3.11-.81-4.43c-.54-1.32-1.3-2.48-2.28-3.48-.64-.65-1.34-1.18-2.11-1.64-2.48-.44-4.94-.89-7.38-1.32-.84.13-1.65.34-2.42.66-1.31.54-2.44,1.31-3.41,2.3Z"/>
    <path class="cls-21" d="M316.98,101.81l.08-.02c2.22-.54,4.55-1.19,6.94-1.93l.29-.09-7.31,9.97v-7.93Z"/>
    <path class="cls-21" d="M317.08,109.43l6.95-9.48c-2.3.71-4.62,1.36-6.95,1.93v7.55Z"/>
    <path class="cls-21" d="M102.45,100.66v-1.02l.07-.02c5.32-1.41,10.55-2.75,15.54-3.99l.12-.03v5.06h-15.73Z"/>
    <path class="cls-21" d="M118.08,100.56v-4.83c-5.62,1.39-10.92,2.76-15.53,3.99v.84h15.53Z"/>
    <path class="cls-21" d="M179.08,115.56v-8.87h8.87c1.84,0,3.26.36,4.22,1.07.97.72,1.46,1.84,1.46,3.34s-.49,2.63-1.46,3.36c-.96.73-2.38,1.1-4.23,1.1h-8.87Z"/>
    <path class="cls-21" d="M179.18,106.79v8.67h8.77c1.83,0,3.22-.36,4.17-1.08.95-.72,1.42-1.81,1.42-3.28s-.47-2.56-1.42-3.26c-.95-.7-2.34-1.05-4.17-1.05h-8.77Z"/>
    <rect class="cls-17" x="117.98" y="100.46" width=".79" height="6.91"/>
    <rect class="cls-44" x="118.08" y="100.56" width=".59" height="6.71"/>
    <rect class="cls-20" x="102.45" y="100.46" width="15.73" height="6.91"/>
    <rect class="cls-23" x="102.55" y="100.56" width="15.53" height="6.71"/>
    <path class="cls-62" d="M287.58,121.44v-17.71h.11c2.82.24,5.46.4,7.83.47h.1v17.24h-8.04Z"/>
    <path class="cls-59" d="M287.68,121.34h7.84v-17.04c-2.44-.07-5.06-.23-7.84-.46v17.5Z"/>
    <path class="cls-32" d="M117.98,121.44v-14.26h.59v-6.51h-.59v-5.01l.08-.02c2.59-.64,5.25-1.29,7.94-1.92l.12-.03v27.76h-8.14Z"/>
    <path class="cls-39" d="M118.08,100.56h.59v6.71h-.59v14.06h7.94v-27.53c-2.69.63-5.34,1.28-7.94,1.92v4.83Z"/>
    <rect class="cls-16" x="101.81" y="100.46" width=".84" height="6.91"/>
    <rect class="cls-30" x="101.91" y="100.56" width=".64" height="6.71"/>
    <path class="cls-28" d="M333,121.44v-22.09l-16.19,22.05-7.68.04v-18.06h.08c2.52-.41,5.16-.94,7.83-1.6l.12-.03v7.37l6.77-9.23c5.41-1.69,11.1-3.82,16.96-6.35l.14-.06v27.96h-8.04Z"/>
    <path class="cls-56" d="M324.03,99.96l-6.95,9.48v-7.55c-2.62.64-5.24,1.18-7.84,1.58v17.87h7.5l16.37-22.29v22.29h7.84v-27.71c-5.31,2.3-11.05,4.51-16.92,6.32Z"/>
    <path class="cls-66" d="M94.46,121.44v-19.64l.07-.02c2.3-.63,5-1.36,7.99-2.15l.13-.03v1.07h-.64v6.51h.64v14.26h-8.19Z"/>
    <path class="cls-35" d="M101.91,100.56h.64v-.84c-2.99.79-5.69,1.52-7.99,2.15v19.47h7.99v-14.06h-.64v-6.71Z"/>
    <path class="cls-25" d="M222.01,122.03c-2.71,0-5.25-.45-7.53-1.33-2.29-.88-4.31-2.14-6.01-3.74-1.7-1.6-3.04-3.51-3.97-5.67-.93-2.16-1.4-4.55-1.4-7.1s.47-4.98,1.4-7.12c.93-2.14,2.27-4.04,3.97-5.64.04-.04.22-.19.22-.19,3.79.61,7.59,1.29,11.45,1.98v.2c-.87.13-1.68.35-2.4.65-1.29.53-2.42,1.3-3.37,2.28-.95.98-1.7,2.14-2.23,3.45-.53,1.3-.8,2.78-.8,4.4s.27,3.09.8,4.4c.53,1.31,1.28,2.47,2.23,3.45.95.98,2.08,1.75,3.37,2.28,1.29.53,2.71.8,4.22.8s2.93-.27,4.2-.8c1.27-.53,2.41-1.3,3.37-2.28.97-.98,1.73-2.14,2.26-3.45.53-1.31.8-2.78.8-4.4s-.27-3.09-.8-4.4c-.53-1.3-1.29-2.46-2.26-3.45-.6-.61-1.31-1.16-2.09-1.62l.07-.18c3.87.69,7.76,1.39,11.65,2.08l.15.22c.04.07.07.14.1.21.93,2.16,1.4,4.56,1.4,7.14s-.47,4.95-1.4,7.12c-.93,2.17-2.27,4.09-3.97,5.69s-3.72,2.85-5.99,3.72c-2.27.87-4.78,1.31-7.46,1.31Z"/>
    <path class="cls-50" d="M229.6,96.28c.98,1,1.74,2.16,2.28,3.48.54,1.32.81,2.8.81,4.43s-.27,3.11-.81,4.43c-.54,1.32-1.3,2.48-2.28,3.48-.98,1-2.12,1.76-3.41,2.3-1.29.54-2.7.81-4.24.81s-2.96-.27-4.26-.81c-1.31-.54-2.44-1.31-3.41-2.3-.96-1-1.71-2.16-2.25-3.48-.54-1.32-.81-2.8-.81-4.43s.27-3.11.81-4.43c.54-1.32,1.29-2.48,2.25-3.48.96-1,2.1-1.76,3.41-2.3.77-.32,1.58-.53,2.42-.66-3.86-.69-7.66-1.36-11.37-2-.07.06-.15.12-.22.18-1.7,1.6-3.01,3.47-3.94,5.61-.93,2.14-1.4,4.5-1.4,7.08s.47,4.9,1.4,7.06c.93,2.16,2.25,4.04,3.94,5.64,1.7,1.6,3.69,2.84,5.98,3.72,2.29.88,4.79,1.32,7.5,1.32s5.15-.43,7.42-1.3c2.27-.87,4.25-2.1,5.95-3.7,1.7-1.6,3.01-3.49,3.94-5.66.93-2.17,1.4-4.53,1.4-7.08s-.47-4.95-1.4-7.1c-.05-.13-.12-.24-.18-.36-3.89-.69-7.79-1.39-11.66-2.08.77.45,1.47.99,2.11,1.64Z"/>
    <path class="cls-18" d="M260.82,122.03c-2.65,0-5.14-.44-7.41-1.31-2.27-.87-4.27-2.12-5.94-3.72-1.67-1.6-2.99-3.51-3.92-5.67-.93-2.16-1.4-4.56-1.4-7.14,0-2.4.42-4.66,1.26-6.74l.03-.08h.08c2.68.48,5.35.94,7.99,1.39l.13.02-.06.12c-.14.28-.28.56-.4.86-.53,1.32-.8,2.81-.8,4.42s.27,3.1.8,4.42c.53,1.32,1.29,2.48,2.26,3.45s2.12,1.73,3.45,2.26c1.32.53,2.79.8,4.37.8,1.68,0,3.25-.35,4.69-1.04,1.43-.69,2.73-1.71,3.86-3.04l.07-.08,5.29,4.84-.06.07c-1.64,2-3.69,3.54-6.11,4.59-2.42,1.05-5.17,1.58-8.17,1.58Z"/>
    <path class="cls-48" d="M242.25,104.19c0,2.58.47,4.95,1.4,7.1.93,2.16,2.23,4.03,3.9,5.63,1.67,1.6,3.63,2.83,5.9,3.7,2.27.87,4.73,1.3,7.37,1.3,3.01,0,5.72-.52,8.13-1.57,2.42-1.04,4.44-2.56,6.08-4.56l-5.15-4.7c-1.14,1.34-2.44,2.36-3.9,3.06-1.45.7-3.03,1.05-4.73,1.05-1.6,0-3.07-.27-4.41-.81-1.34-.54-2.5-1.3-3.48-2.28s-1.74-2.14-2.28-3.48c-.54-1.34-.81-2.83-.81-4.46s.27-3.12.81-4.46c.12-.3.26-.59.4-.87-2.65-.45-5.31-.91-7.99-1.38-.82,2.05-1.25,4.28-1.25,6.7Z"/>
    <path class="cls-43" d="M171.24,121.44v-34.5h8.71c4.57.48,10,1.21,16.6,2.25l.13.07c2.24,1.55,3.38,3.79,3.38,6.65s-1.08,5.06-3.2,6.62c-.46.34-.97.65-1.49.92,1.17.38,2.19.88,3.04,1.49,2.14,1.55,3.23,3.82,3.23,6.75s-1.14,5.43-3.4,7.16c-2.25,1.72-5.6,2.59-9.98,2.59h-17ZM187.95,115.36c1.8,0,3.18-.36,4.1-1.06.92-.7,1.38-1.77,1.38-3.2s-.46-2.5-1.38-3.18c-.93-.69-2.31-1.03-4.11-1.03h-8.67v8.47h8.67ZM186.63,101.15c1.67,0,2.96-.36,3.83-1.06.87-.69,1.31-1.71,1.31-3.01s-.44-2.35-1.31-3.03c-.88-.68-2.17-1.03-3.83-1.03h-7.35v8.13h7.35Z"/>
    <path class="cls-11" d="M171.34,87.04v34.3h16.9c4.38,0,7.68-.86,9.92-2.57,2.24-1.72,3.36-4.07,3.36-7.08s-1.06-5.13-3.18-6.66c-.92-.67-2.01-1.18-3.25-1.55.61-.29,1.18-.63,1.7-1.02,2.11-1.55,3.16-3.73,3.16-6.54s-1.11-5.03-3.33-6.57c-.03-.02-.06-.03-.08-.05-6.08-.96-11.69-1.74-16.59-2.25h-8.61ZM193.54,111.1c0,1.47-.47,2.56-1.42,3.28-.95.72-2.34,1.08-4.17,1.08h-8.77v-8.67h8.77c1.83,0,3.22.35,4.17,1.05.95.7,1.42,1.79,1.42,3.26ZM191.87,97.09c0,1.34-.45,2.37-1.35,3.09-.9.72-2.2,1.08-3.9,1.08h-7.45v-8.33h7.45c1.7,0,3,.35,3.9,1.05.9.7,1.35,1.74,1.35,3.11Z"/>
    <path class="cls-64" d="M148.75,122.03c-2.71,0-5.25-.45-7.53-1.33-2.29-.88-4.31-2.14-6.01-3.74-1.7-1.6-3.04-3.51-3.97-5.67-.93-2.16-1.4-4.55-1.4-7.1s.47-4.98,1.4-7.12c.88-2.02,2.13-3.83,3.73-5.39,8.14-1.81,15.2-3.17,21.05-4.07h.02s.09.03.09.03c2.35.89,4.37,2.14,6.07,3.75,1.7,1.6,3.04,3.51,3.97,5.67.93,2.16,1.4,4.56,1.4,7.14s-.47,4.95-1.4,7.12c-.93,2.17-2.27,4.09-3.97,5.69s-3.72,2.85-5.99,3.72c-2.27.87-4.78,1.31-7.46,1.31ZM148.71,93.27c-1.52,0-2.94.27-4.22.8-1.29.53-2.42,1.3-3.37,2.28-.95.98-1.7,2.14-2.23,3.45-.53,1.3-.8,2.78-.8,4.4s.27,3.09.8,4.4c.53,1.31,1.28,2.47,2.23,3.45.95.98,2.08,1.75,3.37,2.28,1.29.53,2.71.8,4.22.8s2.93-.27,4.2-.8c1.27-.53,2.41-1.3,3.37-2.28.97-.98,1.73-2.14,2.26-3.45.53-1.31.8-2.78.8-4.4s-.27-3.09-.8-4.4c-.53-1.3-1.29-2.46-2.26-3.45-.97-.98-2.1-1.75-3.37-2.28-1.27-.53-2.69-.8-4.2-.8Z"/>
    <path class="cls-7" d="M131.33,97.11c-.93,2.14-1.4,4.5-1.4,7.08s.47,4.9,1.4,7.06c.93,2.16,2.25,4.04,3.94,5.64,1.7,1.6,3.69,2.84,5.98,3.72,2.29.88,4.79,1.32,7.5,1.32s5.15-.43,7.42-1.3c2.27-.87,4.25-2.1,5.95-3.7,1.7-1.6,3.01-3.49,3.94-5.66.93-2.17,1.4-4.53,1.4-7.08s-.47-4.95-1.4-7.1c-.93-2.16-2.25-4.03-3.94-5.64-1.7-1.6-3.68-2.83-5.95-3.7-.05-.02-.1-.03-.15-.05-6.38.98-13.63,2.42-20.99,4.04-1.58,1.55-2.82,3.33-3.71,5.36ZM138.78,99.76c.54-1.32,1.29-2.48,2.25-3.48.96-1,2.1-1.76,3.41-2.3,1.31-.54,2.73-.81,4.26-.81s2.95.27,4.24.81c1.29.54,2.43,1.31,3.41,2.3.98,1,1.74,2.16,2.28,3.48.54,1.32.81,2.8.81,4.43s-.27,3.11-.81,4.43c-.54,1.32-1.3,2.48-2.28,3.48-.98,1-2.12,1.76-3.41,2.3-1.29.54-2.7.81-4.24.81s-2.96-.27-4.26-.81c-1.31-.54-2.44-1.31-3.41-2.3-.96-1-1.71-2.16-2.25-3.48-.54-1.32-.81-2.8-.81-4.43s.27-3.11.81-4.43Z"/>
    <path class="cls-37" d="M333.41,86.98l7.63-.04v6.76l-.06.03c-5.86,2.54-11.56,4.67-16.93,6.32l-.29.09,9.65-13.16Z"/>
    <path class="cls-2" d="M333.49,87.04l-9.47,12.92c5.87-1.81,11.6-4.02,16.92-6.32v-6.59h-7.45Z"/>
    <path class="cls-63" d="M333.41,86.98l7.63-.04v6.76l-.06.03c-5.86,2.54-11.56,4.67-16.93,6.32l-.29.09,9.65-13.16Z"/>
    <path class="cls-65" d="M333.49,87.04l-9.47,12.92c5.87-1.81,11.6-4.02,16.92-6.32v-6.59h-7.45Z"/>
    <path class="cls-22" d="M94.46,86.94h8.19v12.86l-.07.02c-2.99.79-5.69,1.52-7.99,2.15l-.13.03v-15.06Z"/>
    <path class="cls-27" d="M102.55,87.04h-7.99v14.83c2.3-.63,5-1.36,7.99-2.15v-12.68Z"/>
    <path class="cls-61" d="M94.46,86.94h8.19v12.86l-.07.02c-2.99.79-5.69,1.52-7.99,2.15l-.13.03v-15.06Z"/>
    <path class="cls-41" d="M102.55,87.04h-7.99v14.83c2.3-.63,5-1.36,7.99-2.15v-12.68Z"/>
    <polygon class="cls-52" points="287.58 93.61 287.58 91.4 289.73 93.61 287.58 93.61"/>
    <polygon class="cls-31" points="287.68 91.65 287.68 93.51 289.49 93.51 287.68 91.65"/>
    <polygon class="cls-49" points="287.58 93.61 287.58 91.4 289.73 93.61 287.58 93.61"/>
    <polygon class="cls-1" points="287.68 91.65 287.68 93.51 289.49 93.51 287.68 91.65"/>
    <polygon class="cls-57" points="293.52 93.61 295.62 91.4 295.62 93.61 293.52 93.61"/>
    <polygon class="cls-8" points="293.76 93.51 295.52 93.51 295.52 91.65 293.76 93.51"/>
    <polygon class="cls-13" points="293.52 93.61 295.62 91.4 295.62 93.61 293.52 93.61"/>
    <polygon class="cls-9" points="293.76 93.51 295.52 93.51 295.52 91.65 293.76 93.51"/>
    <path class="cls-40" d="M295.52,104.4c-2.38-.07-5.02-.23-7.85-.46h-.09v-10.33h-10.93v-6.67h29.94v6.67h-10.98v10.8h-.1ZM295.42,93.41v-1.51l-1.43,1.51h1.43ZM289.26,93.41l-1.48-1.52v1.52h1.48Z"/>
    <path class="cls-51" d="M293.76,93.51l1.76-1.86v1.86h10.98v-6.47h-29.74v6.47h10.93v-1.86l1.81,1.86h-1.81v10.33c2.78.23,5.4.39,7.84.46v-10.79h-1.76Z"/>
    <path class="cls-26" d="M295.52,104.4c-2.38-.07-5.02-.23-7.85-.46h-.09v-10.33h-10.93v-6.67h29.94v6.67h-10.98v10.8h-.1ZM295.42,93.41v-1.51l-1.43,1.51h1.43ZM289.26,93.41l-1.48-1.52v1.52h1.48Z"/>
    <path class="cls-4" d="M293.76,93.51l1.76-1.86v1.86h10.98v-6.47h-29.74v6.47h10.93v-1.86l1.81,1.86h-1.81v10.33c2.78.23,5.4.39,7.84.46v-10.79h-1.76Z"/>
    <path class="cls-12" d="M309.14,86.94h8.04v15.02l-.08.02c-2.68.66-5.32,1.19-7.85,1.59l-.12.02v-16.65Z"/>
    <path class="cls-14" d="M317.08,87.04h-7.84v16.43c2.6-.41,5.22-.94,7.84-1.58v-14.85Z"/>
    <path class="cls-53" d="M309.14,86.94h8.04v15.02l-.08.02c-2.68.66-5.32,1.19-7.85,1.59l-.12.02v-16.65Z"/>
    <path class="cls-6" d="M317.08,87.04h-7.84v16.43c2.6-.41,5.22-.94,7.84-1.58v-14.85Z"/>
    <path class="cls-38" d="M196.53,89.39c-6.6-1.04-12.02-1.77-16.58-2.25v-.2h7.37c3.93,0,7.06.76,9.28,2.27l-.07.18Z"/>
    <path class="cls-42" d="M179.96,87.04c4.9.51,10.5,1.29,16.59,2.25-2.22-1.5-5.29-2.25-9.23-2.25h-7.36Z"/>
    <path class="cls-15" d="M196.53,89.39c-6.6-1.04-12.02-1.77-16.58-2.25v-.2h7.37c3.93,0,7.06.76,9.28,2.27l-.07.18Z"/>
    <path class="cls-10" d="M179.96,87.04c4.9.51,10.5,1.29,16.59,2.25-2.22-1.5-5.29-2.25-9.23-2.25h-7.36Z"/>
    <path class="cls-54" d="M117.98,86.94h8.14v6.95l-.08.02c-2.69.63-5.34,1.28-7.94,1.92l-.12.03v-8.92Z"/>
    <path class="cls-5" d="M118.08,87.04v8.69c2.59-.64,5.25-1.29,7.94-1.92v-6.77h-7.94Z"/>
    <path class="cls-60" d="M117.98,86.94h8.14v6.95l-.08.02c-2.69.63-5.34,1.28-7.94,1.92l-.12.03v-8.92Z"/>
    <path class="cls-47" d="M118.08,87.04v8.69c2.59-.64,5.25-1.29,7.94-1.92v-6.77h-7.94Z"/>
    <path class="cls-45" d="M134.97,91.68l.1-.11s.09-.09.14-.14c1.7-1.6,3.71-2.86,5.99-3.74,2.27-.88,4.8-1.33,7.51-1.33s5.12.42,7.36,1.26l.36.13-.38.06c-5.84.9-12.9,2.26-20.98,4.04l-.34.08.25-.24Z"/>
    <path class="cls-58" d="M141.23,87.78c-2.27.88-4.26,2.12-5.95,3.72-.08.08-.16.17-.24.25,7.36-1.62,14.61-3.06,20.99-4.04-2.23-.83-4.67-1.25-7.33-1.25s-5.2.44-7.47,1.32Z"/>
    <path class="cls-3" d="M134.97,91.68l.1-.11s.09-.09.14-.14c1.7-1.6,3.71-2.86,5.99-3.74,2.27-.88,4.8-1.33,7.51-1.33s5.12.42,7.36,1.26l.36.13-.38.06c-5.84.9-12.9,2.26-20.98,4.04l-.34.08.25-.24Z"/>
    <path class="cls-33" d="M141.23,87.78c-2.27.88-4.26,2.12-5.95,3.72-.08.08-.16.17-.24.25,7.36-1.62,14.61-3.06,20.99-4.04-2.23-.83-4.67-1.25-7.33-1.25s-5.2.44-7.47,1.32Z"/>
    <path class="cls-36" d="M251.47,98.96c-2.65-.45-5.31-.91-8-1.38l-.12-.02.11-.29c.03-.08.05-.15.09-.23.93-2.16,2.26-4.07,3.94-5.67,1.68-1.6,3.69-2.85,5.96-3.72,2.27-.87,4.77-1.31,7.41-1.31,2.97,0,5.71.52,8.12,1.55,2.42,1.03,4.48,2.56,6.11,4.56l.06.07-5.29,4.84-.07-.08c-1.13-1.32-2.43-2.34-3.86-3.01-1.43-.68-3.01-1.02-4.69-1.02-1.58,0-3.05.27-4.37.8-1.32.53-2.48,1.29-3.45,2.26-.74.74-1.37,1.61-1.86,2.58l-.03.07h-.07Z"/>
    <path class="cls-34" d="M256.85,93.97c1.34-.54,2.81-.81,4.41-.81,1.7,0,3.27.34,4.73,1.03,1.45.69,2.75,1.7,3.9,3.04l5.15-4.7c-1.63-1.99-3.66-3.5-6.08-4.53-2.42-1.03-5.11-1.54-8.09-1.54-2.65,0-5.1.43-7.37,1.3-2.27.87-4.25,2.1-5.93,3.7-1.68,1.6-2.99,3.48-3.92,5.64-.06.13-.09.27-.15.4,2.68.47,5.35.93,7.99,1.38.49-.98,1.12-1.85,1.88-2.61.98-.98,2.14-1.74,3.48-2.28Z"/>
    <path class="cls-29" d="M251.47,98.96c-2.65-.45-5.31-.91-8-1.38l-.12-.02.11-.29c.03-.08.05-.15.09-.23.93-2.16,2.26-4.07,3.94-5.67,1.68-1.6,3.69-2.85,5.96-3.72,2.27-.87,4.77-1.31,7.41-1.31,2.97,0,5.71.52,8.12,1.55,2.42,1.03,4.48,2.56,6.11,4.56l.06.07-5.29,4.84-.07-.08c-1.13-1.32-2.43-2.34-3.86-3.01-1.43-.68-3.01-1.02-4.69-1.02-1.58,0-3.05.27-4.37.8-1.32.53-2.48,1.29-3.45,2.26-.74.74-1.37,1.61-1.86,2.58l-.03.07h-.07Z"/>
    <path class="cls-19" d="M256.85,93.97c1.34-.54,2.81-.81,4.41-.81,1.7,0,3.27.34,4.73,1.03,1.45.69,2.75,1.7,3.9,3.04l5.15-4.7c-1.63-1.99-3.66-3.5-6.08-4.53-2.42-1.03-5.11-1.54-8.09-1.54-2.65,0-5.1.43-7.37,1.3-2.27.87-4.25,2.1-5.93,3.7-1.68,1.6-2.99,3.48-3.92,5.64-.06.13-.09.27-.15.4,2.68.47,5.35.93,7.99,1.38.49-.98,1.12-1.85,1.88-2.61.98-.98,2.14-1.74,3.48-2.28Z"/>
    <path class="cls-46" d="M239.13,96.82c-3.89-.69-7.79-1.39-11.65-2.08-.51-.29-.92-.5-1.32-.67-1.27-.53-2.69-.8-4.2-.8-.58,0-1.18.05-1.83.15-3.9-.69-7.7-1.36-11.4-2l-.2-.03.15-.14c1.67-1.52,3.61-2.72,5.77-3.56,2.27-.88,4.8-1.33,7.51-1.33s5.23.44,7.51,1.31c2.27.87,4.29,2.12,5.99,3.72,1.58,1.49,2.86,3.28,3.79,5.3l.08.17-.19-.03Z"/>
    <path class="cls-24" d="M229.43,87.75c-2.27-.87-4.76-1.3-7.47-1.3s-5.2.44-7.47,1.32c-2.18.85-4.09,2.03-5.74,3.54,3.7.64,7.5,1.31,11.37,2,.6-.09,1.21-.15,1.84-.15,1.54,0,2.95.27,4.24.81.45.19.88.42,1.3.66,3.87.69,7.76,1.39,11.66,2.08-.92-2-2.17-3.76-3.76-5.27-1.7-1.6-3.68-2.83-5.95-3.7Z"/>
    <path class="cls-55" d="M239.13,96.82c-3.89-.69-7.79-1.39-11.65-2.08-.51-.29-.92-.5-1.32-.67-1.27-.53-2.69-.8-4.2-.8-.58,0-1.18.05-1.83.15-3.9-.69-7.7-1.36-11.4-2l-.2-.03.15-.14c1.67-1.52,3.61-2.72,5.77-3.56,2.27-.88,4.8-1.33,7.51-1.33s5.23.44,7.51,1.31c2.27.87,4.29,2.12,5.99,3.72,1.58,1.49,2.86,3.28,3.79,5.3l.08.17-.19-.03Z"/>
    <path class="cls-67" d="M229.43,87.75c-2.27-.87-4.76-1.3-7.47-1.3s-5.2.44-7.47,1.32c-2.18.85-4.09,2.03-5.74,3.54,3.7.64,7.5,1.31,11.37,2,.6-.09,1.21-.15,1.84-.15,1.54,0,2.95.27,4.24.81.45.19.88.42,1.3.66,3.87.69,7.76,1.39,11.66,2.08-.92-2-2.17-3.76-3.76-5.27-1.7-1.6-3.68-2.83-5.95-3.7Z"/>
  </g>
</svg>